<?xml version="1.0" encoding="utf-8"?>
<!-- Generator: Adobe Illustrator 22.1.0, SVG Export Plug-In . SVG Version: 6.00 Build 0)  -->
<svg version="1.1" id="Layer_1" xmlns="http://www.w3.org/2000/svg" xmlns:xlink="http://www.w3.org/1999/xlink" x="0px" y="0px"
	 viewBox="0 0 300 600" style="enable-background:new 0 0 300 600;" xml:space="preserve">
<style type="text/css">
	.st0{fill:#FFF100;}
</style>
<g>
	<g>
		<path class="st0" d="M53.2,229h-4v-2.1h10.2v2.1h-4v10.6h-2.2V229z"/>
		<path class="st0" d="M61.4,226.9h2.2v5.2h6v-5.2h2.2v12.6h-2.2v-5.3h-6v5.3h-2.2V226.9z"/>
		<path class="st0" d="M74.4,226.9h9.3v2h-7.1v3.3h6.3v2h-6.3v3.4h7.2v2h-9.4V226.9z"/>
		<path class="st0" d="M91.3,226.9h9.4v2h-7.2v3.4h6.4v2h-6.4v5.1h-2.2V226.9z"/>
		<path class="st0" d="M102.3,234.2v-7.3h2.2v7.2c0,2.3,1.2,3.6,3.2,3.6c2,0,3.2-1.2,3.2-3.5v-7.3h2.2v7.1c0,3.8-2.1,5.7-5.4,5.7
			C104.4,239.8,102.3,237.9,102.3,234.2z"/>
		<path class="st0" d="M119.1,229h-4v-2.1h10.2v2.1h-4v10.6h-2.2V229z"/>
		<path class="st0" d="M126.9,234.2v-7.3h2.2v7.2c0,2.3,1.2,3.6,3.2,3.6c2,0,3.2-1.2,3.2-3.5v-7.3h2.2v7.1c0,3.8-2.1,5.7-5.4,5.7
			C128.9,239.8,126.9,237.9,126.9,234.2z"/>
		<path class="st0" d="M140.1,226.9h5.6c1.6,0,2.8,0.5,3.6,1.3c0.7,0.7,1,1.6,1,2.7v0c0,2.1-1.2,3.3-3,3.8l3.4,4.8h-2.6l-3.1-4.4
			h-2.8v4.4h-2.2V226.9z M145.5,233.2c1.6,0,2.6-0.8,2.6-2.1v0c0-1.4-1-2.1-2.6-2.1h-3.2v4.2H145.5z"/>
		<path class="st0" d="M152.3,226.9h9.3v2h-7.1v3.3h6.3v2h-6.3v3.4h7.2v2h-9.4V226.9z"/>
		<path class="st0" d="M169,226.9h2.2v12.6H169V226.9z"/>
		<path class="st0" d="M173.3,237.7l1.3-1.6c1.2,1,2.4,1.6,4,1.6c1.4,0,2.2-0.6,2.2-1.6v0c0-0.9-0.5-1.4-2.8-1.9
			c-2.7-0.6-4.2-1.4-4.2-3.8v0c0-2.2,1.8-3.7,4.3-3.7c1.8,0,3.3,0.6,4.6,1.6l-1.2,1.7c-1.1-0.8-2.3-1.3-3.4-1.3
			c-1.3,0-2.1,0.7-2.1,1.5v0c0,1,0.6,1.4,3,2c2.7,0.6,4,1.6,4,3.7v0c0,2.4-1.9,3.8-4.5,3.8C176.6,239.7,174.8,239.1,173.3,237.7z"/>
		<path class="st0" d="M193.9,234.6l-5-7.6h2.6l3.5,5.6l3.6-5.6h2.5l-5,7.6v5h-2.2V234.6z"/>
		<path class="st0" d="M201,233.3L201,233.3c0-3.6,2.7-6.6,6.6-6.6s6.6,2.9,6.6,6.5v0c0,3.5-2.7,6.5-6.6,6.5
			C203.7,239.8,201,236.8,201,233.3z M211.8,233.3L211.8,233.3c0-2.5-1.8-4.5-4.3-4.5c-2.5,0-4.2,2-4.2,4.4v0c0,2.4,1.8,4.5,4.3,4.5
			C210.1,237.7,211.8,235.7,211.8,233.3z"/>
		<path class="st0" d="M216.2,234.2v-7.3h2.2v7.2c0,2.3,1.2,3.6,3.2,3.6c2,0,3.2-1.2,3.2-3.5v-7.3h2.2v7.1c0,3.8-2.1,5.7-5.4,5.7
			C218.3,239.8,216.2,237.9,216.2,234.2z"/>
		<path class="st0" d="M229.4,226.9h5.6c1.6,0,2.8,0.5,3.6,1.3c0.7,0.7,1,1.6,1,2.7v0c0,2.1-1.2,3.3-3,3.8l3.4,4.8h-2.6l-3.1-4.4
			h-2.8v4.4h-2.2V226.9z M234.9,233.2c1.6,0,2.6-0.8,2.6-2.1v0c0-1.4-1-2.1-2.6-2.1h-3.2v4.2H234.9z"/>
		<path class="st0" d="M241.1,237.7l1.3-1.6c1.2,1,2.4,1.6,4,1.6c1.4,0,2.2-0.6,2.2-1.6v0c0-0.9-0.5-1.4-2.8-1.9
			c-2.7-0.6-4.2-1.4-4.2-3.8v0c0-2.2,1.8-3.7,4.3-3.7c1.8,0,3.3,0.6,4.6,1.6l-1.2,1.7c-1.1-0.8-2.3-1.3-3.4-1.3
			c-1.3,0-2.1,0.7-2.1,1.5v0c0,1,0.6,1.4,3,2c2.7,0.6,4,1.6,4,3.7v0c0,2.4-1.9,3.8-4.5,3.8C244.4,239.7,242.6,239.1,241.1,237.7z"/>
		<path class="st0" d="M101.4,248.5h-4v-2.1h10.2v2.1h-4v10.6h-2.2V248.5z"/>
		<path class="st0" d="M108.3,252.8L108.3,252.8c0-3.6,2.7-6.6,6.6-6.6s6.6,2.9,6.6,6.5v0c0,3.5-2.7,6.5-6.6,6.5
			C111,259.3,108.3,256.3,108.3,252.8z M119.2,252.8L119.2,252.8c0-2.5-1.8-4.5-4.3-4.5c-2.5,0-4.2,2-4.2,4.4v0
			c0,2.4,1.8,4.5,4.3,4.5C117.4,257.2,119.2,255.2,119.2,252.8z"/>
		<path class="st0" d="M128.1,252.8L128.1,252.8c0-3.6,2.7-6.6,6.5-6.6c2.3,0,3.7,0.8,5,2l-1.4,1.6c-1-0.9-2.1-1.5-3.5-1.5
			c-2.4,0-4.1,2-4.1,4.4v0c0,2.5,1.7,4.5,4.2,4.5c1.5,0,2.5-0.6,3.6-1.6l1.4,1.4c-1.3,1.4-2.8,2.2-5.1,2.2
			C130.8,259.3,128.1,256.4,128.1,252.8z"/>
		<path class="st0" d="M141.4,246.4h5.6c1.6,0,2.8,0.5,3.6,1.3c0.7,0.7,1,1.6,1,2.7v0c0,2.1-1.2,3.3-3,3.8l3.4,4.8h-2.6l-3.1-4.4
			h-2.8v4.4h-2.2V246.4z M146.9,252.7c1.6,0,2.6-0.8,2.6-2.1v0c0-1.4-1-2.1-2.6-2.1h-3.2v4.2H146.9z"/>
		<path class="st0" d="M154.1,246.4h9.3v2h-7.1v3.3h6.3v2h-6.3v3.4h7.2v2h-9.4V246.4z"/>
		<path class="st0" d="M170.3,246.4h2.1l5.5,12.7h-2.3l-1.3-3h-6l-1.3,3h-2.3L170.3,246.4z M173.5,254l-2.2-5l-2.2,5H173.5z"/>
		<path class="st0" d="M180.3,248.5h-4v-2.1h10.2v2.1h-4v10.6h-2.2V248.5z"/>
		<path class="st0" d="M188.2,246.4h9.3v2h-7.1v3.3h6.3v2h-6.3v3.4h7.2v2h-9.4V246.4z"/>
		<path class="st0" d="M200,256.6h2.4v2.5H200V256.6z"/>
	</g>
</g>
</svg>
