<?xml version="1.0" encoding="utf-8"?>
<!-- Generator: Adobe Illustrator 22.1.0, SVG Export Plug-In . SVG Version: 6.00 Build 0)  -->
<svg version="1.1" id="Layer_1" xmlns="http://www.w3.org/2000/svg" xmlns:xlink="http://www.w3.org/1999/xlink" x="0px" y="0px"
	 viewBox="0 0 300 600" style="enable-background:new 0 0 300 600;" xml:space="preserve">
<style type="text/css">
	.st0{fill:#FFFFFF;}
	.st1{fill:#FFF200;}
</style>
<g>
	<path class="st0" d="M72.7,377.8h1l4.5,9.9H77l-1.1-2.6h-5.3l-1.2,2.6h-1.1L72.7,377.8z M75.4,384.1l-2.2-5l-2.2,5H75.4z"/>
	<path class="st0" d="M79.4,380.4h1.1v1.5c0.6-0.9,1.4-1.6,2.8-1.6c1.7,0,3.5,1.4,3.5,3.8v0c0,2.4-1.7,3.8-3.5,3.8
		c-1.3,0-2.2-0.7-2.8-1.5v3.6h-1.1V380.4z M85.6,384L85.6,384c0-1.7-1.2-2.8-2.5-2.8c-1.3,0-2.6,1.1-2.6,2.8v0
		c0,1.7,1.3,2.8,2.6,2.8C84.4,386.8,85.6,385.8,85.6,384z"/>
	<path class="st0" d="M88.1,380.4h1.1v1.5c0.6-0.9,1.4-1.6,2.8-1.6c1.7,0,3.5,1.4,3.5,3.8v0c0,2.4-1.7,3.8-3.5,3.8
		c-1.3,0-2.2-0.7-2.8-1.5v3.6h-1.1V380.4z M94.3,384L94.3,384c0-1.7-1.2-2.8-2.5-2.8c-1.3,0-2.6,1.1-2.6,2.8v0
		c0,1.7,1.3,2.8,2.6,2.8C93.2,386.8,94.3,385.8,94.3,384z"/>
	<path class="st0" d="M96.9,377.4H98v10.2h-1.1V377.4z"/>
	<path class="st0" d="M105.4,380.4h1.1l-3,7.5c-0.6,1.5-1.3,2-2.4,2c-0.6,0-1-0.1-1.5-0.4l0.4-0.9c0.3,0.2,0.7,0.3,1.1,0.3
		c0.6,0,1-0.3,1.5-1.4l-3.3-7.2h1.2l2.6,6L105.4,380.4z"/>
	<path class="st0" d="M111.3,380.4h1.1v1.3c0.5-0.8,1.2-1.4,2.5-1.4c1.7,0,2.8,1.2,2.8,2.9v4.5h-1.1v-4.2c0-1.3-0.7-2.2-2-2.2
		c-1.2,0-2.2,0.9-2.2,2.3v4.1h-1.1V380.4z"/>
	<path class="st0" d="M118.9,384.1L118.9,384.1c0-2.1,1.6-3.8,3.8-3.8c2.2,0,3.8,1.7,3.8,3.8v0c0,2-1.6,3.8-3.8,3.8
		C120.5,387.8,118.9,386.1,118.9,384.1z M125.4,384.1L125.4,384.1c0-1.6-1.2-2.9-2.7-2.9c-1.6,0-2.6,1.3-2.6,2.8v0
		c0,1.6,1.1,2.8,2.7,2.8C124.3,386.8,125.4,385.6,125.4,384.1z"/>
	<path class="st0" d="M126.9,380.4h1.1l1.9,5.8l1.9-5.8h0.9l2,5.8l1.9-5.8h1.1l-2.5,7.3h-0.9l-1.9-5.7l-2,5.7h-1L126.9,380.4z"/>
	<path class="st0" d="M142.1,385.5L142.1,385.5c0-1.6,1.3-2.4,3.1-2.4c0.9,0,1.6,0.1,2.2,0.3v-0.3c0-1.3-0.8-2-2.2-2
		c-0.9,0-1.5,0.2-2.2,0.5l-0.3-0.9c0.8-0.4,1.6-0.6,2.6-0.6c1,0,1.8,0.3,2.3,0.8c0.5,0.5,0.7,1.2,0.7,2.1v4.4h-1v-1.1
		c-0.5,0.7-1.3,1.2-2.6,1.2C143.5,387.8,142.1,387,142.1,385.5z M147.4,385v-0.7c-0.5-0.2-1.2-0.3-2.1-0.3c-1.4,0-2.1,0.6-2.1,1.5v0
		c0,0.9,0.8,1.4,1.8,1.4C146.4,386.9,147.4,386.1,147.4,385z"/>
	<path class="st0" d="M150.5,385.7v-4.4h-1v-1h1v-2.2h1.1v2.2h2.3v1h-2.3v4.2c0,0.9,0.5,1.2,1.2,1.2c0.4,0,0.7-0.1,1-0.3v0.9
		c-0.4,0.2-0.8,0.3-1.3,0.3C151.4,387.8,150.5,387.2,150.5,385.7z"/>
	<path class="st1" d="M158.1,386.7l0.8-1.1c0.8,0.6,1.7,0.9,2.4,0.9c0.7,0,1.1-0.3,1.1-0.8v0c0-0.6-0.8-0.8-1.7-1
		c-1.1-0.3-2.3-0.8-2.3-2.2v0c0-1.4,1.2-2.3,2.6-2.3c0.9,0,1.9,0.3,2.7,0.8l-0.7,1.2c-0.7-0.4-1.5-0.7-2.1-0.7c-0.7,0-1,0.3-1,0.7v0
		c0,0.5,0.8,0.8,1.7,1.1c1.1,0.3,2.3,0.8,2.3,2.2v0c0,1.6-1.2,2.3-2.7,2.3C160.2,387.8,159,387.4,158.1,386.7z"/>
	<path class="st1" d="M165.1,385v-4.7h1.7v4.2c0,1.1,0.6,1.8,1.6,1.8c1,0,1.7-0.7,1.7-1.8v-4.2h1.7v7.4H170v-1.1
		c-0.5,0.7-1.2,1.3-2.3,1.3C166.1,387.8,165.1,386.7,165.1,385z"/>
	<path class="st1" d="M173.7,385.6v-3.9h-0.9v-1.5h0.9v-2h1.7v2h2v1.5h-2v3.6c0,0.7,0.3,0.9,0.9,0.9c0.4,0,0.7-0.1,1-0.3v1.4
		c-0.4,0.2-0.9,0.4-1.5,0.4C174.5,387.8,173.7,387.2,173.7,385.6z"/>
	<path class="st1" d="M177.9,384L177.9,384c0-2.5,1.7-3.9,3.4-3.9c1.2,0,2,0.6,2.5,1.3v-4h1.7v10.2h-1.7v-1.2
		c-0.5,0.8-1.3,1.4-2.5,1.4C179.6,387.8,177.9,386.4,177.9,384z M183.9,384L183.9,384c0-1.5-1-2.4-2.1-2.4c-1.2,0-2.1,0.9-2.1,2.4v0
		c0,1.4,1,2.4,2.1,2.4C182.9,386.3,183.9,385.4,183.9,384z"/>
	<path class="st1" d="M187,385.7h1.9v1.9H187V385.7z"/>
	<path class="st1" d="M189.6,384L189.6,384c0-2.1,1.5-3.9,3.6-3.9c2.4,0,3.5,1.8,3.5,4c0,0.2,0,0.3,0,0.5h-5.4
		c0.2,1.2,1,1.9,2.1,1.9c0.8,0,1.4-0.3,2-0.9l1,0.9c-0.7,0.8-1.7,1.4-3,1.4C191.3,387.8,189.6,386.3,189.6,384z M195.1,383.4
		c-0.1-1.1-0.8-1.9-1.9-1.9c-1,0-1.8,0.8-1.9,1.9H195.1z"/>
	<path class="st1" d="M197.6,384L197.6,384c0-2.5,1.7-3.9,3.4-3.9c1.2,0,2,0.6,2.5,1.3v-4h1.7v10.2h-1.7v-1.2
		c-0.5,0.8-1.3,1.4-2.5,1.4C199.3,387.8,197.6,386.4,197.6,384z M203.5,384L203.5,384c0-1.5-1-2.4-2.1-2.4c-1.2,0-2.1,0.9-2.1,2.4v0
		c0,1.4,1,2.4,2.1,2.4C202.5,386.3,203.5,385.4,203.5,384z"/>
	<path class="st1" d="M206.7,385v-4.7h1.7v4.2c0,1.1,0.6,1.8,1.6,1.8c1,0,1.7-0.7,1.7-1.8v-4.2h1.7v7.4h-1.7v-1.1
		c-0.5,0.7-1.2,1.3-2.3,1.3C207.7,387.8,206.7,386.7,206.7,385z"/>
	<path class="st1" d="M214.8,385.7h1.9v1.9h-1.9V385.7z"/>
	<path class="st1" d="M217.5,386.7l0.8-1.1c0.8,0.6,1.7,0.9,2.4,0.9c0.7,0,1.1-0.3,1.1-0.8v0c0-0.6-0.8-0.8-1.7-1
		c-1.1-0.3-2.3-0.8-2.3-2.2v0c0-1.4,1.2-2.3,2.6-2.3c0.9,0,1.9,0.3,2.7,0.8l-0.7,1.2c-0.7-0.4-1.5-0.7-2.1-0.7c-0.7,0-1,0.3-1,0.7v0
		c0,0.5,0.8,0.8,1.7,1.1c1.1,0.3,2.3,0.8,2.3,2.2v0c0,1.6-1.2,2.3-2.7,2.3C219.6,387.8,218.4,387.4,217.5,386.7z"/>
	<path class="st1" d="M224.5,389l0.6-1.3c0.8,0.5,1.6,0.8,2.6,0.8c1.5,0,2.3-0.8,2.3-2.3v-0.6c-0.6,0.8-1.4,1.3-2.6,1.3
		c-1.7,0-3.4-1.3-3.4-3.5v0c0-2.2,1.6-3.5,3.4-3.5c1.2,0,2,0.6,2.6,1.3v-1.1h1.7v5.9c0,1.2-0.3,2.2-0.9,2.8c-0.7,0.7-1.7,1-3,1
		C226.6,389.9,225.5,389.6,224.5,389z M230.2,383.6L230.2,383.6c0-1.2-1-2-2.2-2c-1.2,0-2.1,0.8-2.1,2v0c0,1.2,0.9,2,2.1,2
		C229.2,385.6,230.2,384.8,230.2,383.6z"/>
</g>
<g>
	<path class="st1" d="M65,412.8L65,412.8c0-2.8,2.1-5.1,5.1-5.1c3,0,5.1,2.3,5.1,5v0c0,2.8-2.1,5.1-5.1,5.1S65,415.5,65,412.8z
		 M73.5,412.8L73.5,412.8c0-1.9-1.4-3.5-3.3-3.5s-3.3,1.5-3.3,3.4v0c0,1.9,1.4,3.5,3.3,3.5C72.1,416.2,73.5,414.7,73.5,412.8z"/>
	<path class="st1" d="M76.6,410.2h1.7v1.2c0.5-0.8,1.3-1.4,2.5-1.4c1.7,0,3.4,1.4,3.4,3.8v0c0,2.5-1.7,3.8-3.4,3.8
		c-1.2,0-2-0.6-2.5-1.3v3.4h-1.7V410.2z M82.6,414L82.6,414c0-1.5-1-2.4-2.1-2.4c-1.1,0-2.2,1-2.2,2.4v0c0,1.4,1,2.4,2.2,2.4
		C81.6,416.3,82.6,415.4,82.6,414z"/>
	<path class="st1" d="M85.1,414L85.1,414c0-2.1,1.5-3.9,3.6-3.9c2.4,0,3.5,1.8,3.5,4c0,0.2,0,0.3,0,0.5h-5.4c0.2,1.2,1,1.9,2.1,1.9
		c0.8,0,1.4-0.3,2-0.9l1,0.9c-0.7,0.8-1.7,1.4-3,1.4C86.7,417.8,85.1,416.3,85.1,414z M90.5,413.4c-0.1-1.1-0.8-1.9-1.9-1.9
		c-1,0-1.8,0.8-1.9,1.9H90.5z"/>
	<path class="st1" d="M93.3,410.2h1.7v1.1c0.5-0.7,1.2-1.3,2.3-1.3c1.7,0,2.6,1.1,2.6,2.8v4.7h-1.7v-4.2c0-1.1-0.6-1.8-1.6-1.8
		c-1,0-1.7,0.7-1.7,1.8v4.2h-1.7V410.2z"/>
	<path class="st1" d="M105.3,407.8h1.7v4.1h4.7v-4.1h1.7v9.8h-1.7v-4.1H107v4.1h-1.7V407.8z"/>
	<path class="st1" d="M114.8,414L114.8,414c0-2.1,1.7-3.9,4-3.9s3.9,1.7,3.9,3.8v0c0,2.1-1.7,3.9-4,3.9
		C116.5,417.8,114.8,416.1,114.8,414z M121,414L121,414c0-1.3-0.9-2.4-2.3-2.4c-1.4,0-2.2,1.1-2.2,2.4v0c0,1.3,0.9,2.4,2.3,2.4
		C120.1,416.3,121,415.3,121,414z"/>
	<path class="st1" d="M123.8,415v-4.7h1.7v4.2c0,1.1,0.6,1.8,1.6,1.8c1,0,1.7-0.7,1.7-1.8v-4.2h1.7v7.4h-1.7v-1.1
		c-0.5,0.7-1.2,1.3-2.3,1.3C124.7,417.8,123.8,416.7,123.8,415z"/>
	<path class="st1" d="M131.4,416.7l0.8-1.1c0.8,0.6,1.7,0.9,2.4,0.9c0.7,0,1.1-0.3,1.1-0.8v0c0-0.6-0.8-0.8-1.7-1
		c-1.1-0.3-2.3-0.8-2.3-2.2v0c0-1.4,1.2-2.3,2.6-2.3c0.9,0,1.9,0.3,2.7,0.8l-0.7,1.2c-0.7-0.4-1.5-0.7-2.1-0.7c-0.7,0-1,0.3-1,0.7v0
		c0,0.5,0.8,0.8,1.7,1.1c1.1,0.3,2.3,0.8,2.3,2.2v0c0,1.6-1.2,2.3-2.7,2.3C133.4,417.8,132.3,417.4,131.4,416.7z"/>
	<path class="st1" d="M138,414L138,414c0-2.1,1.5-3.9,3.6-3.9c2.4,0,3.5,1.8,3.5,4c0,0.2,0,0.3,0,0.5h-5.4c0.2,1.2,1,1.9,2.1,1.9
		c0.8,0,1.4-0.3,2-0.9l1,0.9c-0.7,0.8-1.7,1.4-3,1.4C139.7,417.8,138,416.3,138,414z M143.5,413.4c-0.1-1.1-0.8-1.9-1.9-1.9
		c-1,0-1.8,0.8-1.9,1.9H143.5z"/>
	<path class="st0" d="M150.4,412.7L150.4,412.7c0-1,0.9-1.8,1.8-1.8c1,0,1.8,0.8,1.8,1.8v0c0,1-0.8,1.8-1.8,1.8
		S150.4,413.7,150.4,412.7z"/>
	<path class="st0" d="M159.3,416.8l3.6-3.1c1.5-1.3,2-2.1,2-3.1c0-1.1-0.9-1.9-2-1.9c-1.1,0-1.8,0.6-2.6,1.7l-0.8-0.6
		c0.9-1.3,1.8-2.1,3.5-2.1c1.8,0,3,1.2,3,2.8v0c0,1.4-0.8,2.3-2.5,3.8l-2.6,2.3h5.2v1h-6.8V416.8z"/>
	<path class="st0" d="M167.2,416.1l0.8-0.7c0.8,0.9,1.7,1.5,2.9,1.5c1.2,0,2.1-0.8,2.1-1.9v0c0-1.2-1.1-1.9-2.7-1.9h-0.6l-0.2-0.7
		l3.1-3.5h-4.8v-1h6.3v0.8l-3.1,3.4c1.7,0.1,3.2,1,3.2,2.8v0c0,1.8-1.5,3-3.3,3C169.2,417.8,168,417.1,167.2,416.1z"/>
	<path class="st0" d="M185.1,416.3c-0.9,1-1.9,1.5-3.2,1.5c-1.8,0-3.1-1.1-3.1-2.7v0c0-1.3,0.9-2.2,2.4-2.8c-0.7-0.8-1-1.4-1-2.2v0
		c0-1.3,1-2.3,2.6-2.3c1.4,0,2.4,1,2.4,2.2v0c0,1.2-0.9,2-2.3,2.6l2.2,2.3c0.4-0.6,0.8-1.4,1.2-2.2l0.9,0.4
		c-0.4,0.9-0.9,1.8-1.4,2.5l1.7,1.8l-0.8,0.6L185.1,416.3z M184.4,415.6l-2.6-2.7c-1.3,0.5-1.9,1.3-1.9,2.1v0c0,1.1,0.8,1.8,2,1.8
		C182.9,416.8,183.7,416.4,184.4,415.6z M184.1,410L184.1,410c0-0.8-0.6-1.4-1.4-1.4c-0.9,0-1.5,0.6-1.5,1.4v0c0,0.6,0.2,1,1,1.8
		C183.4,411.4,184.1,410.8,184.1,410z"/>
	<path class="st0" d="M191.6,416.8l3.6-3.1c1.5-1.3,2-2.1,2-3.1c0-1.1-0.9-1.9-2-1.9c-1.1,0-1.8,0.6-2.6,1.7l-0.8-0.6
		c0.9-1.3,1.8-2.1,3.5-2.1c1.8,0,3,1.2,3,2.8v0c0,1.4-0.8,2.3-2.5,3.8l-2.6,2.3h5.2v1h-6.8V416.8z"/>
	<path class="st0" d="M204.5,415.3h-5.2l-0.3-0.8l5.5-6.8h1v6.6h1.5v0.9h-1.5v2.3h-1.1V415.3z M204.5,414.4v-5.1l-4.1,5.1H204.5z"/>
	<path class="st0" d="M212.3,407.8h7v1h-5.9v3.5h5.3v1h-5.3v4.3h-1.1V407.8z"/>
	<path class="st0" d="M220.1,414L220.1,414c0-2.1,1.5-3.8,3.5-3.8c2.1,0,3.4,1.7,3.4,3.8c0,0.1,0,0.2,0,0.4h-5.7
		c0.2,1.6,1.3,2.5,2.5,2.5c1,0,1.7-0.4,2.3-1l0.7,0.6c-0.7,0.8-1.6,1.4-3,1.4C221.7,417.8,220.1,416.3,220.1,414z M225.8,413.6
		c-0.1-1.3-0.9-2.5-2.3-2.5c-1.3,0-2.2,1.1-2.4,2.5H225.8z"/>
	<path class="st0" d="M229.3,416.3v1.4h-1.1v-10.2h1.1v4.4c0.6-0.9,1.4-1.6,2.8-1.6c1.7,0,3.5,1.4,3.5,3.8v0c0,2.4-1.7,3.8-3.5,3.8
		C230.8,417.8,229.9,417.1,229.3,416.3z M234.5,414L234.5,414c0-1.7-1.2-2.8-2.5-2.8c-1.3,0-2.6,1.1-2.6,2.8v0
		c0,1.7,1.3,2.8,2.6,2.8C233.3,416.8,234.5,415.8,234.5,414z"/>
</g>
</svg>
