<?xml version="1.0" encoding="utf-8"?>
<!-- Generator: Adobe Illustrator 22.1.0, SVG Export Plug-In . SVG Version: 6.00 Build 0)  -->
<svg version="1.1" id="Layer_1" xmlns="http://www.w3.org/2000/svg" xmlns:xlink="http://www.w3.org/1999/xlink" x="0px" y="0px"
	 viewBox="0 0 300 600" style="enable-background:new 0 0 300 600;" xml:space="preserve">
<style type="text/css">
	.st0{fill:#FFFFFF;}
</style>
<g>
	<g>
		<path class="st0" d="M61.8,244.7c1.9,0.4,2.7,1.1,2.7,2.4c0,1.5-1.2,2.4-2.9,2.4c-1.3,0-2.4-0.4-3.4-1.4l0.6-0.7
			c0.9,0.8,1.7,1.2,2.9,1.2c1.1,0,1.9-0.6,1.9-1.4c0-0.8-0.4-1.2-2.2-1.6c-1.9-0.4-2.8-1-2.8-2.4c0-1.3,1.2-2.3,2.8-2.3
			c1.2,0,2.1,0.3,3,1l-0.5,0.7c-0.8-0.6-1.6-0.9-2.4-0.9c-1.1,0-1.8,0.6-1.8,1.4C59.5,243.9,60,244.3,61.8,244.7"/>
		<rect x="67.1" y="241" class="st0" width="0.9" height="8.4"/>
		<polygon class="st0" points="77.3,241 78.2,241 78.2,249.4 77.4,249.4 72,242.5 72,249.4 71.1,249.4 71.1,241 72,241 77.3,247.7 
					"/>
		<path class="st0" d="M84.9,249.5c-2.7,0-4.3-1.9-4.3-4.3c0-2.3,1.7-4.4,4.2-4.4c1.4,0,2.3,0.4,3.1,1.1l-0.6,0.7
			c-0.7-0.6-1.4-1-2.6-1c-1.9,0-3.2,1.6-3.2,3.5c0,2,1.3,3.5,3.3,3.5c1,0,1.9-0.4,2.4-0.8v-2.1h-2.6v-0.9h3.5v3.4
			C87.5,249,86.3,249.5,84.9,249.5"/>
		<path class="st0" d="M98.6,249.4h-1l-1-2.2H92l-1,2.2h-1l3.8-8.5h0.9L98.6,249.4z M94.3,242l-1.9,4.3h3.8L94.3,242z"/>
		<path class="st0" d="M103.6,246.4h-2v3h-1V241h3.2c1.9,0,3.2,1,3.2,2.7C106.9,245.5,105.4,246.4,103.6,246.4 M103.7,241.9h-2.1
			v3.7h2.1c1.4,0,2.3-0.7,2.3-1.9C106,242.5,105.1,241.9,103.7,241.9"/>
		<path class="st0" d="M113.1,249.5c-2.6,0-4.3-2-4.3-4.3c0-2.3,1.7-4.4,4.3-4.4c2.6,0,4.3,2,4.3,4.3
			C117.4,247.5,115.6,249.5,113.1,249.5 M113.1,241.7c-1.9,0-3.3,1.5-3.3,3.5c0,1.9,1.4,3.5,3.3,3.5c1.9,0,3.3-1.5,3.3-3.5
			C116.4,243.3,115,241.7,113.1,241.7"/>
		<path class="st0" d="M125.5,249.4l-2.4-3.3h-2.4v3.3h-1V241h3.6c1.9,0,3,1,3,2.5c0,1.4-1,2.2-2.3,2.5l2.6,3.4H125.5z M123.3,241.9
			h-2.6v3.4h2.6c1.3,0,2.2-0.7,2.2-1.7C125.4,242.5,124.6,241.9,123.3,241.9"/>
		<polygon class="st0" points="135,241.9 129.9,241.9 129.9,244.7 134.5,244.7 134.5,245.6 129.9,245.6 129.9,248.5 135.1,248.5 
			135.1,249.4 129,249.4 129,241 135,241 		"/>
		<path class="st0" d="M149.7,245.8c0,2.5-1.4,3.7-3.5,3.7c-2.1,0-3.5-1.3-3.5-3.7V241h1v4.8c0,1.8,1,2.8,2.6,2.8
			c1.6,0,2.5-0.9,2.5-2.8V241h1V245.8z"/>
		<polygon class="st0" points="158.7,241 159.6,241 159.6,249.4 158.8,249.4 153.4,242.5 153.4,249.4 152.5,249.4 152.5,241 
			153.4,241 158.7,247.7 		"/>
		<rect x="162.6" y="241" class="st0" width="0.9" height="8.4"/>
		<polygon class="st0" points="172.7,241 173.7,241 170.1,249.5 169.3,249.5 165.6,241 166.7,241 169.7,248.2 		"/>
		<polygon class="st0" points="181.8,241.9 176.7,241.9 176.7,244.7 181.3,244.7 181.3,245.6 176.7,245.6 176.7,248.5 181.9,248.5 
			181.9,249.4 175.7,249.4 175.7,241 181.8,241 		"/>
		<path class="st0" d="M190.1,249.4l-2.4-3.3h-2.4v3.3h-1V241h3.6c1.8,0,3,1,3,2.5c0,1.4-1,2.2-2.3,2.5l2.6,3.4H190.1z M187.9,241.9
			h-2.6v3.4h2.6c1.3,0,2.2-0.7,2.2-1.7C190,242.5,189.2,241.9,187.9,241.9"/>
		<path class="st0" d="M196.6,244.7c1.9,0.4,2.7,1.1,2.7,2.4c0,1.5-1.2,2.4-2.9,2.4c-1.3,0-2.4-0.4-3.4-1.4l0.6-0.7
			c0.9,0.8,1.7,1.2,2.9,1.2c1.1,0,1.9-0.6,1.9-1.4c0-0.8-0.4-1.2-2.2-1.6c-1.9-0.4-2.8-1-2.8-2.4c0-1.3,1.2-2.3,2.8-2.3
			c1.2,0,2.1,0.3,3,1l-0.5,0.7c-0.8-0.6-1.6-0.9-2.4-0.9c-1.1,0-1.8,0.6-1.8,1.4C194.3,243.9,194.7,244.3,196.6,244.7"/>
		<rect x="201.9" y="241" class="st0" width="1" height="8.4"/>
		<polygon class="st0" points="208.8,249.4 207.9,249.4 207.9,241.9 205.1,241.9 205.1,241 211.7,241 211.7,241.9 208.8,241.9 		"/>
		<polygon class="st0" points="217.3,249.4 216.3,249.4 216.3,246.1 212.8,241 214,241 216.8,245.2 219.7,241 220.8,241 
			217.3,246.1 		"/>
		<path class="st0" d="M229.6,249.5c-2.6,0-4.3-2-4.3-4.3c0-2.3,1.7-4.4,4.3-4.4c2.6,0,4.3,2,4.3,4.3
			C233.9,247.5,232.2,249.5,229.6,249.5 M229.6,241.7c-1.9,0-3.3,1.5-3.3,3.5c0,1.9,1.4,3.5,3.3,3.5c1.9,0,3.3-1.5,3.3-3.5
			C233,243.3,231.6,241.7,229.6,241.7"/>
		<polygon class="st0" points="242.4,241.9 237.3,241.9 237.3,244.9 241.8,244.9 241.8,245.7 237.3,245.7 237.3,249.4 236.3,249.4 
			236.3,241 242.4,241 		"/>
		<polygon class="st0" points="62,262 61.1,262 61.1,254.5 58.2,254.5 58.2,253.6 64.8,253.6 64.8,254.5 62,254.5 		"/>
		<polygon class="st0" points="73.3,254.5 68.2,254.5 68.2,257.4 72.8,257.4 72.8,258.2 68.2,258.2 68.2,261.2 73.4,261.2 73.4,262 
			67.2,262 67.2,253.6 73.3,253.6 		"/>
		<path class="st0" d="M79.9,262.2c-2.4,0-4.2-1.9-4.2-4.3c0-2.4,1.8-4.4,4.3-4.4c1.5,0,2.4,0.5,3.3,1.3l-0.6,0.7
			c-0.7-0.7-1.5-1.2-2.6-1.2c-1.9,0-3.3,1.5-3.3,3.5c0,2,1.4,3.5,3.3,3.5c1.2,0,1.9-0.4,2.7-1.2l0.6,0.6
			C82.4,261.6,81.5,262.2,79.9,262.2"/>
		<polygon class="st0" points="86.8,258.2 86.8,262 85.9,262 85.9,253.6 86.8,253.6 86.8,257.4 91.7,257.4 91.7,253.6 92.6,253.6 
			92.6,262 91.7,262 91.7,258.2 		"/>
		<polygon class="st0" points="102.2,253.6 103.1,253.6 103.1,262 102.4,262 96.9,255.1 96.9,262 96,262 96,253.6 96.9,253.6 
			102.2,260.4 		"/>
		<path class="st0" d="M110.1,262.2c-2.6,0-4.3-2-4.3-4.3c0-2.3,1.7-4.4,4.3-4.4c2.6,0,4.3,2,4.3,4.3
			C114.4,260.1,112.6,262.2,110.1,262.2 M110.1,254.3c-1.9,0-3.3,1.5-3.3,3.5c0,1.9,1.4,3.5,3.3,3.5c1.9,0,3.3-1.5,3.3-3.5
			C113.4,255.9,112,254.3,110.1,254.3"/>
		<polygon class="st0" points="117.1,253.6 118,253.6 118,261.1 122.7,261.1 122.7,262 117.1,262 		"/>
		<path class="st0" d="M128.2,262.2c-2.6,0-4.3-2-4.3-4.3c0-2.3,1.7-4.4,4.3-4.4c2.6,0,4.3,2,4.3,4.3
			C132.5,260.1,130.8,262.2,128.2,262.2 M128.2,254.3c-1.9,0-3.3,1.5-3.3,3.5c0,1.9,1.4,3.5,3.3,3.5c1.9,0,3.3-1.5,3.3-3.5
			C131.5,255.9,130.2,254.3,128.2,254.3"/>
		<path class="st0" d="M139,262.2c-2.6,0-4.3-1.9-4.3-4.3c0-2.3,1.7-4.4,4.2-4.4c1.4,0,2.3,0.4,3.1,1.1l-0.6,0.7
			c-0.6-0.6-1.4-1-2.6-1c-1.9,0-3.2,1.6-3.2,3.5c0,2,1.3,3.5,3.3,3.5c1,0,1.9-0.4,2.4-0.8v-2.1H139v-0.9h3.5v3.4
			C141.6,261.6,140.5,262.2,139,262.2"/>
		<polygon class="st0" points="148.4,262 147.4,262 147.4,258.7 143.9,253.6 145.1,253.6 147.9,257.8 150.8,253.6 151.9,253.6 
			148.4,258.7 		"/>
		<path class="st0" d="M165.7,262h-1l-1-2.2h-4.6l-1,2.2h-1l3.8-8.5h0.9L165.7,262z M161.4,254.7l-1.9,4.3h3.8L161.4,254.7z"/>
		<polygon class="st0" points="174.2,253.6 175.1,253.6 175.1,262 174.3,262 168.9,255.1 168.9,262 168,262 168,253.6 168.9,253.6 
			174.2,260.4 		"/>
		<path class="st0" d="M181.4,262h-2.9v-8.4h2.9c2.6,0,4.5,1.8,4.5,4.2C185.9,260.2,184.1,262,181.4,262 M181.4,254.5h-2v6.7h2
			c2.1,0,3.5-1.4,3.5-3.3C184.9,256,183.5,254.5,181.4,254.5"/>
		<path class="st0" d="M195.9,262H193v-8.4h2.9c2.7,0,4.5,1.8,4.5,4.2C200.4,260.2,198.6,262,195.9,262 M195.9,254.5h-2v6.7h2
			c2.1,0,3.5-1.4,3.5-3.3C199.4,256,198.1,254.5,195.9,254.5"/>
		<polygon class="st0" points="209.3,254.5 204.1,254.5 204.1,257.4 208.7,257.4 208.7,258.2 204.1,258.2 204.1,261.2 209.3,261.2 
			209.3,262 203.2,262 203.2,253.6 209.3,253.6 		"/>
		<path class="st0" d="M215,257.4c1.9,0.4,2.8,1.1,2.8,2.4c0,1.5-1.2,2.4-2.9,2.4c-1.3,0-2.4-0.4-3.4-1.4l0.6-0.7
			c0.9,0.8,1.7,1.2,2.9,1.2c1.1,0,1.9-0.6,1.9-1.4c0-0.8-0.4-1.2-2.2-1.6c-1.9-0.4-2.8-1-2.8-2.4c0-1.3,1.1-2.3,2.8-2.3
			c1.2,0,2.1,0.3,3,1l-0.6,0.7c-0.8-0.6-1.6-0.9-2.4-0.9c-1.1,0-1.8,0.6-1.8,1.4C212.8,256.5,213.2,257,215,257.4"/>
		<rect x="220.8" y="253.6" class="st0" width="0.9" height="8.4"/>
		<path class="st0" d="M228.7,262.2c-2.6,0-4.3-1.9-4.3-4.3c0-2.3,1.7-4.4,4.2-4.4c1.4,0,2.3,0.4,3.1,1.1l-0.6,0.7
			c-0.6-0.6-1.4-1-2.6-1c-1.9,0-3.2,1.6-3.2,3.5c0,2,1.3,3.5,3.3,3.5c1,0,1.9-0.4,2.4-0.8v-2.1h-2.6v-0.9h3.5v3.4
			C231.3,261.6,230.1,262.2,228.7,262.2"/>
		<polygon class="st0" points="241.4,253.6 242.4,253.6 242.4,262 241.6,262 236.2,255.1 236.2,262 235.2,262 235.2,253.6 
			236.1,253.6 241.4,260.4 		"/>
		<rect x="58.2" y="218.9" class="st0" width="32.6" height="4.2"/>
		<rect x="67.7" y="200" class="st0" width="32.6" height="4.2"/>
		<polygon class="st0" points="100.3,232.6 58.2,232.6 58.2,228.4 96.1,228.4 96.1,213.6 58.2,213.6 58.2,190.5 100.3,190.5 
			100.3,194.7 62.4,194.7 62.4,209.4 100.3,209.4 		"/>
		<rect x="124.5" y="190.5" class="st0" width="4.2" height="23.1"/>
		<polygon class="st0" points="147.7,232.6 105.6,232.6 105.6,190.5 109.8,190.5 109.8,228.4 143.5,228.4 143.5,190.5 147.7,190.5 
					"/>
		<polygon class="st0" points="138.2,223.1 115.1,223.1 115.1,190.5 119.3,190.5 119.3,218.9 134,218.9 134,190.5 138.2,190.5 		"/>
		<rect x="200.3" y="209.4" class="st0" width="23.1" height="4.2"/>
		<polygon class="st0" points="242.4,232.6 200.3,232.6 200.3,228.4 238.2,228.4 238.2,194.7 200.3,194.7 200.3,190.5 242.4,190.5 
					"/>
		<polygon class="st0" points="232.9,223.1 200.3,223.1 200.3,218.9 228.7,218.9 228.7,204.2 200.3,204.2 200.3,200 232.9,200 		"/>
		<polygon class="st0" points="152.9,190.5 152.9,194.7 171.9,194.7 171.9,232.6 176.1,232.6 176.1,194.7 195,194.7 195,190.5 		"/>
		<polygon class="st0" points="181.3,232.6 185.5,232.6 185.5,204.2 195,204.2 195,200 181.3,200 		"/>
		<rect x="190.8" y="209.4" class="st0" width="4.2" height="23.1"/>
		<rect x="152.9" y="209.4" class="st0" width="4.2" height="23.1"/>
		<polygon class="st0" points="152.9,204.2 162.4,204.2 162.4,232.6 166.6,232.6 166.6,200 152.9,200 		"/>
	</g>
	<g>
		<path class="st0" d="M37.1,285.4h1.8l4.9,11.3h-2.1l-1.1-2.7h-5.3l-1.2,2.7h-2L37.1,285.4z M39.9,292.3l-1.9-4.5l-1.9,4.5H39.9z"
			/>
		<path class="st0" d="M49.3,285.5h5c1.3,0,2.3,0.4,2.9,1c0.5,0.5,0.8,1.1,0.8,1.9v0c0,1.3-0.8,2.1-1.6,2.5c1.3,0.4,2.2,1.2,2.2,2.7
			v0c0,2-1.6,3.1-4.1,3.1h-5.2V285.5z M56,288.7c0-0.9-0.7-1.4-2-1.4h-2.8v3h2.7C55.2,290.2,56,289.7,56,288.7L56,288.7z
			 M54.3,291.9h-3.1v3.1h3.3c1.3,0,2.2-0.5,2.2-1.5v0C56.7,292.4,55.9,291.9,54.3,291.9z"/>
		<path class="st0" d="M60.2,285.5h8.3v1.8h-6.3v2.9h5.6v1.8h-5.6v3h6.4v1.8h-8.4V285.5z"/>
		<path class="st0" d="M73,287.3h-3.6v-1.8h9.1v1.8H75v9.4h-2V287.3z"/>
		<path class="st0" d="M82.7,287.3h-3.6v-1.8h9.1v1.8h-3.6v9.4h-2V287.3z"/>
		<path class="st0" d="M89.7,285.5H98v1.8h-6.3v2.9h5.6v1.8h-5.6v3h6.4v1.8h-8.4V285.5z"/>
		<path class="st0" d="M99.8,285.5h5c1.4,0,2.5,0.4,3.2,1.1c0.6,0.6,0.9,1.4,0.9,2.4v0c0,1.8-1.1,3-2.7,3.4l3,4.2h-2.3l-2.8-3.9
			h-2.5v3.9h-2V285.5z M104.6,291.1c1.4,0,2.3-0.7,2.3-1.9v0c0-1.2-0.9-1.9-2.3-1.9h-2.9v3.8H104.6z"/>
		<path class="st0" d="M114,285.5h2.1l2.7,8.3l2.8-8.4h1.7l2.8,8.4l2.7-8.3h2.1l-3.9,11.3h-1.7l-2.8-8.1l-2.8,8.1h-1.7L114,285.5z"
			/>
		<path class="st0" d="M131,291.1L131,291.1c0-3.2,2.4-5.8,5.9-5.8s5.8,2.6,5.8,5.8v0c0,3.2-2.4,5.8-5.9,5.8S131,294.3,131,291.1z
			 M140.6,291.1L140.6,291.1c0-2.2-1.6-4-3.8-4c-2.2,0-3.8,1.8-3.8,3.9v0c0,2.2,1.6,4,3.8,4C139.1,295.1,140.6,293.3,140.6,291.1z"
			/>
		<path class="st0" d="M144.4,285.5h5c1.4,0,2.5,0.4,3.2,1.1c0.6,0.6,0.9,1.4,0.9,2.4v0c0,1.8-1.1,3-2.7,3.4l3,4.2h-2.3l-2.8-3.9
			h-2.5v3.9h-2V285.5z M149.3,291.1c1.4,0,2.3-0.7,2.3-1.9v0c0-1.2-0.9-1.9-2.3-1.9h-2.9v3.8H149.3z"/>
		<path class="st0" d="M155.4,285.5h2v9.4h5.9v1.8h-7.9V285.5z"/>
		<path class="st0" d="M164.6,285.5h4.2c3.5,0,6,2.4,6,5.6v0c0,3.2-2.4,5.6-6,5.6h-4.2V285.5z M166.6,287.3v7.6h2.2
			c2.4,0,3.9-1.6,3.9-3.8v0c0-2.2-1.5-3.8-3.9-3.8H166.6z"/>
		<path class="st0" d="M180.7,285.5h5c1.3,0,2.3,0.4,2.9,1c0.5,0.5,0.8,1.1,0.8,1.9v0c0,1.3-0.8,2.1-1.6,2.5
			c1.3,0.4,2.2,1.2,2.2,2.7v0c0,2-1.6,3.1-4.1,3.1h-5.2V285.5z M187.4,288.7c0-0.9-0.7-1.4-2-1.4h-2.8v3h2.7
			C186.6,290.2,187.4,289.7,187.4,288.7L187.4,288.7z M185.8,291.9h-3.1v3.1h3.3c1.3,0,2.2-0.5,2.2-1.5v0
			C188.1,292.4,187.3,291.9,185.8,291.9z"/>
		<path class="st0" d="M194.4,292.3l-4.5-6.8h2.3l3.1,5l3.2-5h2.3l-4.5,6.8v4.5h-2V292.3z"/>
		<path class="st0" d="M206.1,285.5h4.2c3.5,0,6,2.4,6,5.6v0c0,3.2-2.4,5.6-6,5.6h-4.2V285.5z M208.1,287.3v7.6h2.2
			c2.4,0,3.9-1.6,3.9-3.8v0c0-2.2-1.5-3.8-3.9-3.8H208.1z"/>
		<path class="st0" d="M218,285.5h8.3v1.8H220v2.9h5.6v1.8H220v3h6.4v1.8H218V285.5z"/>
		<path class="st0" d="M227.4,295.1l1.2-1.4c1.1,0.9,2.2,1.5,3.5,1.5c1.2,0,2-0.6,2-1.4v0c0-0.8-0.4-1.2-2.5-1.7
			c-2.4-0.6-3.7-1.3-3.7-3.4v0c0-1.9,1.6-3.3,3.8-3.3c1.6,0,2.9,0.5,4.1,1.4l-1.1,1.5c-1-0.8-2-1.2-3-1.2c-1.2,0-1.8,0.6-1.8,1.3v0
			c0,0.9,0.5,1.3,2.7,1.8c2.4,0.6,3.6,1.4,3.6,3.3v0c0,2.1-1.6,3.4-4,3.4C230.3,296.9,228.7,296.3,227.4,295.1z"/>
		<path class="st0" d="M237.8,285.5h2v11.2h-2V285.5z"/>
		<path class="st0" d="M241.7,291.1L241.7,291.1c0-3.2,2.4-5.8,5.8-5.8c2,0,3.2,0.5,4.3,1.5l-1.2,1.5c-0.9-0.7-1.7-1.2-3.1-1.2
			c-2.1,0-3.6,1.8-3.6,3.9v0c0,2.3,1.5,4,3.8,4c1.1,0,2-0.3,2.7-0.9v-2.1h-2.9v-1.7h4.8v4.7c-1.1,0.9-2.7,1.7-4.7,1.7
			C244,296.9,241.7,294.4,241.7,291.1z"/>
		<path class="st0" d="M254.1,285.5h1.8l6,7.8v-7.8h1.9v11.2h-1.6l-6.2-8v8h-1.9V285.5z"/>
		<path class="st0" d="M265.7,294.5h2.1v2.2h-2.1V294.5z"/>
	</g>
</g>
</svg>
