<?xml version="1.0" encoding="utf-8"?>
<!-- Generator: Adobe Illustrator 22.1.0, SVG Export Plug-In . SVG Version: 6.00 Build 0)  -->
<svg version="1.1" id="Layer_1" xmlns="http://www.w3.org/2000/svg" xmlns:xlink="http://www.w3.org/1999/xlink" x="0px" y="0px"
	 viewBox="0 0 300 600" style="enable-background:new 0 0 300 600;" xml:space="preserve">
<style type="text/css">
	.st0{fill:#FFFFFF;}
</style>
<g>
	<g>
		<path class="st0" d="M92.5,555.9c1.2,0.3,1.8,0.7,1.8,1.6c0,0.9-0.8,1.6-1.9,1.6c-0.9,0-1.6-0.3-2.2-0.9l0.4-0.5
			c0.6,0.5,1.1,0.8,1.9,0.8c0.7,0,1.2-0.4,1.2-0.9c0-0.5-0.3-0.8-1.4-1.1c-1.3-0.3-1.8-0.7-1.8-1.6c0-0.9,0.8-1.5,1.8-1.5
			c0.8,0,1.4,0.2,1.9,0.7l-0.4,0.5c-0.5-0.4-1-0.6-1.6-0.6c-0.7,0-1.2,0.4-1.2,0.9C91,555.4,91.3,555.7,92.5,555.9"/>
		<rect x="96" y="553.5" class="st0" width="0.6" height="5.5"/>
		<polygon class="st0" points="102.6,553.5 103.2,553.5 103.2,558.9 102.7,558.9 99.1,554.5 99.1,558.9 98.5,558.9 98.5,553.5 
			99.1,553.5 102.6,557.9 		"/>
		<path class="st0" d="M107.5,559c-1.7,0-2.8-1.2-2.8-2.8c0-1.5,1.1-2.8,2.7-2.8c0.9,0,1.5,0.3,2,0.7l-0.4,0.5
			c-0.4-0.4-0.9-0.6-1.7-0.6c-1.2,0-2.1,1-2.1,2.2c0,1.3,0.8,2.3,2.2,2.3c0.6,0,1.2-0.2,1.6-0.5v-1.4h-1.7V556h2.3v2.2
			C109.2,558.7,108.4,559,107.5,559"/>
		<path class="st0" d="M116.4,558.9h-0.7l-0.6-1.4h-3l-0.6,1.4h-0.6l2.5-5.5h0.6L116.4,558.9z M113.6,554.2l-1.2,2.8h2.5
			L113.6,554.2z"/>
		<path class="st0" d="M119.7,557h-1.3v1.9h-0.6v-5.5h2c1.2,0,2,0.7,2,1.7C121.8,556.4,120.8,557,119.7,557 M119.7,554.1h-1.4v2.4
			h1.3c0.9,0,1.5-0.5,1.5-1.2C121.2,554.5,120.6,554.1,119.7,554.1"/>
		<path class="st0" d="M125.8,559c-1.7,0-2.8-1.3-2.8-2.8c0-1.5,1.1-2.8,2.8-2.8c1.7,0,2.8,1.3,2.8,2.8
			C128.6,557.7,127.5,559,125.8,559 M125.8,554c-1.3,0-2.1,1-2.1,2.3c0,1.3,0.9,2.3,2.2,2.3c1.2,0,2.1-1,2.1-2.3
			C128,555,127.1,554,125.8,554"/>
		<path class="st0" d="M133.9,558.9l-1.6-2.1h-1.6v2.1h-0.6v-5.5h2.4c1.2,0,2,0.6,2,1.6c0,0.9-0.6,1.4-1.5,1.6l1.7,2.2H133.9z
			 M132.4,554.1h-1.7v2.2h1.7c0.8,0,1.4-0.4,1.4-1.1C133.8,554.5,133.3,554.1,132.4,554.1"/>
		<polygon class="st0" points="140.1,554 136.8,554 136.8,555.9 139.7,555.9 139.7,556.5 136.8,556.5 136.8,558.4 140.1,558.4 
			140.1,558.9 136.1,558.9 136.1,553.5 140.1,553.5 		"/>
		<path class="st0" d="M149.6,556.6c0,1.6-0.9,2.4-2.3,2.4c-1.3,0-2.3-0.8-2.3-2.4v-3.2h0.6v3.1c0,1.2,0.6,1.8,1.7,1.8
			c1,0,1.6-0.6,1.6-1.8v-3.2h0.6V556.6z"/>
		<polygon class="st0" points="155.4,553.5 156,553.5 156,558.9 155.5,558.9 152,554.5 152,558.9 151.4,558.9 151.4,553.5 
			152,553.5 155.4,557.9 		"/>
		<rect x="158" y="553.5" class="st0" width="0.6" height="5.5"/>
		<polygon class="st0" points="164.6,553.5 165.2,553.5 162.9,559 162.3,559 160,553.5 160.6,553.5 162.6,558.2 		"/>
		<polygon class="st0" points="170.5,554 167.1,554 167.1,555.9 170.1,555.9 170.1,556.5 167.1,556.5 167.1,558.4 170.5,558.4 
			170.5,558.9 166.5,558.9 166.5,553.5 170.5,553.5 		"/>
		<path class="st0" d="M175.9,558.9l-1.6-2.1h-1.6v2.1h-0.6v-5.5h2.4c1.2,0,2,0.6,2,1.6c0,0.9-0.6,1.4-1.5,1.6l1.7,2.2H175.9z
			 M174.4,554.1h-1.7v2.2h1.7c0.8,0,1.4-0.4,1.4-1.1C175.8,554.5,175.3,554.1,174.4,554.1"/>
		<path class="st0" d="M180.1,555.9c1.2,0.3,1.8,0.7,1.8,1.6c0,0.9-0.8,1.6-1.9,1.6c-0.9,0-1.6-0.3-2.2-0.9l0.4-0.5
			c0.6,0.5,1.1,0.8,1.9,0.8c0.7,0,1.2-0.4,1.2-0.9c0-0.5-0.3-0.8-1.4-1.1c-1.3-0.3-1.8-0.7-1.8-1.6c0-0.9,0.8-1.5,1.8-1.5
			c0.8,0,1.4,0.2,1.9,0.7l-0.4,0.5c-0.5-0.4-1-0.6-1.6-0.6c-0.7,0-1.2,0.4-1.2,0.9C178.6,555.4,178.9,555.7,180.1,555.9"/>
		<rect x="183.5" y="553.5" class="st0" width="0.6" height="5.5"/>
		<polygon class="st0" points="188,558.9 187.4,558.9 187.4,554.1 185.6,554.1 185.6,553.5 189.9,553.5 189.9,554.1 188,554.1 		"/>
		<polygon class="st0" points="193.5,558.9 192.9,558.9 192.9,556.8 190.6,553.5 191.4,553.5 193.2,556.2 195.1,553.5 195.8,553.5 
			193.5,556.8 		"/>
		<path class="st0" d="M201.5,559c-1.7,0-2.8-1.3-2.8-2.8c0-1.5,1.1-2.8,2.8-2.8c1.7,0,2.8,1.3,2.8,2.8
			C204.3,557.7,203.2,559,201.5,559 M201.5,554c-1.3,0-2.1,1-2.1,2.3c0,1.2,0.9,2.3,2.2,2.3c1.2,0,2.1-1,2.1-2.3
			C203.7,555,202.8,554,201.5,554"/>
		<polygon class="st0" points="209.8,554.1 206.5,554.1 206.5,556 209.4,556 209.4,556.6 206.5,556.6 206.5,558.9 205.9,558.9 
			205.9,553.5 209.8,553.5 		"/>
		<polygon class="st0" points="92.7,567.1 92,567.1 92,562.3 90.2,562.3 90.2,561.7 94.5,561.7 94.5,562.3 92.7,562.3 		"/>
		<polygon class="st0" points="100,562.2 96.7,562.2 96.7,564.1 99.6,564.1 99.6,564.7 96.7,564.7 96.7,566.6 100,566.6 100,567.1 
			96,567.1 96,561.7 100,561.7 		"/>
		<path class="st0" d="M104.3,567.2c-1.6,0-2.7-1.2-2.7-2.8c0-1.6,1.2-2.8,2.8-2.8c1,0,1.6,0.3,2.1,0.9l-0.4,0.5
			c-0.5-0.4-1-0.7-1.7-0.7c-1.2,0-2.1,1-2.1,2.2c0,1.3,0.9,2.3,2.1,2.3c0.7,0,1.2-0.3,1.8-0.8l0.4,0.4
			C105.9,566.9,105.3,567.2,104.3,567.2"/>
		<polygon class="st0" points="108.8,564.7 108.8,567.1 108.1,567.1 108.1,561.7 108.8,561.7 108.8,564.1 111.9,564.1 111.9,561.7 
			112.5,561.7 112.5,567.1 111.9,567.1 111.9,564.7 		"/>
		<polygon class="st0" points="118.8,561.7 119.4,561.7 119.4,567.1 118.9,567.1 115.3,562.7 115.3,567.1 114.7,567.1 114.7,561.7 
			115.3,561.7 118.8,566.1 		"/>
		<path class="st0" d="M123.9,567.2c-1.7,0-2.8-1.3-2.8-2.8c0-1.5,1.1-2.8,2.8-2.8c1.7,0,2.8,1.3,2.8,2.8
			C126.7,565.9,125.5,567.2,123.9,567.2 M123.9,562.2c-1.2,0-2.1,1-2.1,2.2c0,1.3,0.9,2.3,2.2,2.3c1.2,0,2.1-1,2.1-2.2
			C126,563.2,125.1,562.2,123.9,562.2"/>
		<polygon class="st0" points="128.4,561.7 129,561.7 129,566.6 132.1,566.6 132.1,567.1 128.4,567.1 		"/>
		<path class="st0" d="M135.7,567.2c-1.7,0-2.8-1.3-2.8-2.8c0-1.5,1.1-2.8,2.8-2.8c1.7,0,2.8,1.3,2.8,2.8
			C138.5,565.9,137.3,567.2,135.7,567.2 M135.7,562.2c-1.3,0-2.1,1-2.1,2.2c0,1.3,0.9,2.3,2.2,2.3c1.3,0,2.1-1,2.1-2.2
			C137.8,563.2,136.9,562.2,135.7,562.2"/>
		<path class="st0" d="M142.7,567.2c-1.7,0-2.8-1.3-2.8-2.8c0-1.5,1.1-2.8,2.7-2.8c0.9,0,1.5,0.3,2,0.7l-0.4,0.5
			c-0.4-0.4-0.9-0.6-1.7-0.6c-1.2,0-2.1,1-2.1,2.2c0,1.3,0.8,2.3,2.2,2.3c0.6,0,1.2-0.2,1.6-0.5v-1.4h-1.7v-0.6h2.3v2.2
			C144.4,566.9,143.6,567.2,142.7,567.2"/>
		<polygon class="st0" points="148.8,567.1 148.1,567.1 148.1,565 145.9,561.7 146.6,561.7 148.5,564.4 150.3,561.7 151,561.7 
			148.8,565 		"/>
		<path class="st0" d="M160,567.1h-0.7l-0.6-1.4h-3l-0.6,1.4h-0.6l2.5-5.5h0.6L160,567.1z M157.2,562.4l-1.2,2.8h2.5L157.2,562.4z"
			/>
		<polygon class="st0" points="165.5,561.7 166.1,561.7 166.1,567.1 165.6,567.1 162.1,562.7 162.1,567.1 161.5,567.1 161.5,561.7 
			162.1,561.7 165.5,566.1 		"/>
		<path class="st0" d="M170.2,567.1h-1.9v-5.5h1.9c1.7,0,2.9,1.2,2.9,2.7S171.9,567.1,170.2,567.1 M170.2,562.3h-1.3v4.3h1.3
			c1.4,0,2.3-0.9,2.3-2.2C172.5,563.2,171.6,562.3,170.2,562.3"/>
		<path class="st0" d="M179.6,567.1h-1.9v-5.5h1.9c1.7,0,2.9,1.2,2.9,2.7S181.4,567.1,179.6,567.1 M179.6,562.3h-1.3v4.3h1.3
			c1.4,0,2.3-0.9,2.3-2.2C181.9,563.2,181,562.3,179.6,562.3"/>
		<polygon class="st0" points="188.3,562.2 185,562.2 185,564.1 187.9,564.1 187.9,564.7 185,564.7 185,566.6 188.3,566.6 
			188.3,567.1 184.4,567.1 184.4,561.7 188.3,561.7 		"/>
		<path class="st0" d="M192,564.1c1.2,0.3,1.8,0.7,1.8,1.6c0,0.9-0.8,1.6-1.9,1.6c-0.9,0-1.6-0.3-2.2-0.9l0.4-0.5
			c0.6,0.5,1.1,0.8,1.9,0.8c0.7,0,1.2-0.4,1.2-0.9c0-0.5-0.3-0.8-1.4-1c-1.3-0.3-1.8-0.7-1.8-1.6c0-0.9,0.7-1.5,1.8-1.5
			c0.8,0,1.4,0.2,1.9,0.7l-0.4,0.5c-0.5-0.4-1-0.6-1.6-0.6c-0.7,0-1.2,0.4-1.2,0.9C190.6,563.6,190.8,563.9,192,564.1"/>
		<rect x="195.8" y="561.7" class="st0" width="0.6" height="5.5"/>
		<path class="st0" d="M200.9,567.2c-1.7,0-2.8-1.3-2.8-2.8c0-1.5,1.1-2.8,2.7-2.8c0.9,0,1.5,0.3,2,0.7l-0.4,0.5
			c-0.4-0.4-0.9-0.6-1.7-0.6c-1.2,0-2.1,1-2.1,2.2c0,1.3,0.8,2.3,2.2,2.3c0.6,0,1.2-0.2,1.6-0.5v-1.4h-1.7v-0.6h2.3v2.2
			C202.6,566.9,201.8,567.2,200.9,567.2"/>
		<polygon class="st0" points="209.2,561.7 209.8,561.7 209.8,567.1 209.3,567.1 205.8,562.7 205.8,567.1 205.2,567.1 205.2,561.7 
			205.7,561.7 209.2,566.1 		"/>
		<rect x="90.2" y="539.1" class="st0" width="21.2" height="2.7"/>
		<rect x="96.3" y="526.8" class="st0" width="21.2" height="2.7"/>
		<polygon class="st0" points="117.5,548 90.2,548 90.2,545.3 114.8,545.3 114.8,535.7 90.2,535.7 90.2,520.7 117.5,520.7 
			117.5,523.4 92.9,523.4 92.9,533 117.5,533 		"/>
		<rect x="133.3" y="520.7" class="st0" width="2.7" height="15"/>
		<polygon class="st0" points="148.3,548 121,548 121,520.7 123.7,520.7 123.7,545.3 145.6,545.3 145.6,520.7 148.3,520.7 		"/>
		<polygon class="st0" points="142.1,541.9 127.1,541.9 127.1,520.7 129.8,520.7 129.8,539.1 139.4,539.1 139.4,520.7 142.1,520.7 
					"/>
		<rect x="182.5" y="533" class="st0" width="15" height="2.7"/>
		<polygon class="st0" points="209.8,548 182.5,548 182.5,545.3 207.1,545.3 207.1,523.4 182.5,523.4 182.5,520.7 209.8,520.7 		"/>
		<polygon class="st0" points="203.6,541.9 182.5,541.9 182.5,539.1 200.9,539.1 200.9,529.6 182.5,529.6 182.5,526.8 203.6,526.8 
					"/>
		<polygon class="st0" points="151.7,520.7 151.7,523.4 164,523.4 164,548 166.7,548 166.7,523.4 179,523.4 179,520.7 		"/>
		<polygon class="st0" points="170.2,548 172.9,548 172.9,529.6 179,529.6 179,526.8 170.2,526.8 		"/>
		<rect x="176.3" y="533" class="st0" width="2.7" height="15"/>
		<rect x="151.7" y="533" class="st0" width="2.7" height="15"/>
		<polygon class="st0" points="151.7,529.6 157.9,529.6 157.9,548 160.6,548 160.6,526.8 151.7,526.8 		"/>
	</g>
</g>
</svg>
