<?xml version="1.0" encoding="utf-8"?>
<!-- Generator: Adobe Illustrator 22.1.0, SVG Export Plug-In . SVG Version: 6.00 Build 0)  -->
<svg version="1.1" id="Layer_1" xmlns="http://www.w3.org/2000/svg" xmlns:xlink="http://www.w3.org/1999/xlink" x="0px" y="0px"
	 viewBox="0 0 336 280" style="enable-background:new 0 0 336 280;" xml:space="preserve">
<style type="text/css">
	.st0{fill:#FFF100;}
</style>
<g>
	<path class="st0" d="M70.9,126.9h-4v-2.1h10.2v2.1h-4v10.6h-2.2V126.9z"/>
	<path class="st0" d="M79.1,124.8h2.2v5.2h6v-5.2h2.2v12.6h-2.2v-5.3h-6v5.3h-2.2V124.8z"/>
	<path class="st0" d="M92.1,124.8h9.3v2h-7.1v3.3h6.3v2h-6.3v3.4h7.2v2h-9.4V124.8z"/>
	<path class="st0" d="M109,124.8h9.4v2h-7.2v3.4h6.4v2h-6.4v5.1H109V124.8z"/>
	<path class="st0" d="M120.1,132.1v-7.3h2.2v7.2c0,2.3,1.2,3.6,3.2,3.6c2,0,3.2-1.2,3.2-3.5v-7.3h2.2v7.1c0,3.8-2.1,5.7-5.4,5.7
		C122.1,137.6,120.1,135.7,120.1,132.1z"/>
	<path class="st0" d="M136.8,126.9h-4v-2.1H143v2.1h-4v10.6h-2.2V126.9z"/>
	<path class="st0" d="M144.6,132.1v-7.3h2.2v7.2c0,2.3,1.2,3.6,3.2,3.6c2,0,3.2-1.2,3.2-3.5v-7.3h2.2v7.1c0,3.8-2.1,5.7-5.4,5.7
		C146.7,137.6,144.6,135.7,144.6,132.1z"/>
	<path class="st0" d="M157.8,124.8h5.6c1.6,0,2.8,0.5,3.6,1.3c0.7,0.7,1,1.6,1,2.7v0c0,2.1-1.2,3.3-3,3.8l3.4,4.8h-2.6l-3.1-4.4H160
		v4.4h-2.2V124.8z M163.2,131.1c1.6,0,2.6-0.8,2.6-2.1v0c0-1.4-1-2.1-2.6-2.1H160v4.2H163.2z"/>
	<path class="st0" d="M170,124.8h9.3v2h-7.1v3.3h6.3v2h-6.3v3.4h7.2v2H170V124.8z"/>
	<path class="st0" d="M186.7,124.8h2.2v12.6h-2.2V124.8z"/>
	<path class="st0" d="M191,135.6l1.3-1.6c1.2,1,2.4,1.6,4,1.6c1.4,0,2.2-0.6,2.2-1.6v0c0-0.9-0.5-1.4-2.8-1.9
		c-2.7-0.6-4.2-1.4-4.2-3.8v0c0-2.2,1.8-3.7,4.3-3.7c1.8,0,3.3,0.6,4.6,1.6l-1.2,1.7c-1.1-0.8-2.3-1.3-3.4-1.3
		c-1.3,0-2.1,0.7-2.1,1.5v0c0,1,0.6,1.4,3,2c2.7,0.6,4,1.6,4,3.7v0c0,2.4-1.9,3.8-4.5,3.8C194.3,137.6,192.5,136.9,191,135.6z"/>
	<path class="st0" d="M211.6,132.5l-5-7.6h2.6l3.5,5.6l3.6-5.6h2.5l-5,7.6v5h-2.2V132.5z"/>
	<path class="st0" d="M218.7,131.2L218.7,131.2c0-3.6,2.7-6.6,6.6-6.6s6.6,2.9,6.6,6.5v0c0,3.5-2.7,6.5-6.6,6.5
		S218.7,134.7,218.7,131.2z M229.6,131.2L229.6,131.2c0-2.5-1.8-4.5-4.3-4.5s-4.2,2-4.2,4.4v0c0,2.4,1.8,4.5,4.3,4.5
		C227.8,135.6,229.6,133.6,229.6,131.2z"/>
	<path class="st0" d="M233.9,132.1v-7.3h2.2v7.2c0,2.3,1.2,3.6,3.2,3.6c2,0,3.2-1.2,3.2-3.5v-7.3h2.2v7.1c0,3.8-2.1,5.7-5.4,5.7
		C236,137.6,233.9,135.7,233.9,132.1z"/>
	<path class="st0" d="M247.1,124.8h5.6c1.6,0,2.8,0.5,3.6,1.3c0.7,0.7,1,1.6,1,2.7v0c0,2.1-1.2,3.3-3,3.8l3.4,4.8h-2.6l-3.1-4.4
		h-2.8v4.4h-2.2V124.8z M252.6,131.1c1.6,0,2.6-0.8,2.6-2.1v0c0-1.4-1-2.1-2.6-2.1h-3.2v4.2H252.6z"/>
	<path class="st0" d="M258.8,135.6l1.3-1.6c1.2,1,2.4,1.6,4,1.6c1.4,0,2.2-0.6,2.2-1.6v0c0-0.9-0.5-1.4-2.8-1.9
		c-2.7-0.6-4.2-1.4-4.2-3.8v0c0-2.2,1.8-3.7,4.3-3.7c1.8,0,3.3,0.6,4.6,1.6l-1.2,1.7c-1.1-0.8-2.3-1.3-3.4-1.3
		c-1.3,0-2.1,0.7-2.1,1.5v0c0,1,0.6,1.4,3,2c2.7,0.6,4,1.6,4,3.7v0c0,2.4-1.9,3.8-4.5,3.8C262.1,137.6,260.3,136.9,258.8,135.6z"/>
	<path class="st0" d="M119.1,146.4h-4v-2.1h10.2v2.1h-4v10.6h-2.2V146.4z"/>
	<path class="st0" d="M126,150.7L126,150.7c0-3.6,2.7-6.6,6.6-6.6s6.6,2.9,6.6,6.5v0c0,3.5-2.7,6.5-6.6,6.5S126,154.2,126,150.7z
		 M136.9,150.7L136.9,150.7c0-2.5-1.8-4.5-4.3-4.5s-4.2,2-4.2,4.4v0c0,2.4,1.8,4.5,4.3,4.5C135.1,155.1,136.9,153.1,136.9,150.7z"/>
	<path class="st0" d="M145.8,150.7L145.8,150.7c0-3.6,2.7-6.6,6.5-6.6c2.3,0,3.7,0.8,5,2l-1.4,1.6c-1-0.9-2.1-1.5-3.5-1.5
		c-2.4,0-4.1,2-4.1,4.4v0c0,2.5,1.7,4.5,4.2,4.5c1.5,0,2.5-0.6,3.6-1.6l1.4,1.4c-1.3,1.4-2.8,2.2-5.1,2.2
		C148.5,157.1,145.8,154.3,145.8,150.7z"/>
	<path class="st0" d="M159.2,144.3h5.6c1.6,0,2.8,0.5,3.6,1.3c0.7,0.7,1,1.6,1,2.7v0c0,2.1-1.2,3.3-3,3.8l3.4,4.8h-2.6l-3.1-4.4
		h-2.8v4.4h-2.2V144.3z M164.6,150.6c1.6,0,2.6-0.8,2.6-2.1v0c0-1.4-1-2.1-2.6-2.1h-3.2v4.2H164.6z"/>
	<path class="st0" d="M171.8,144.3h9.3v2H174v3.3h6.3v2H174v3.4h7.2v2h-9.4V144.3z"/>
	<path class="st0" d="M188,144.2h2.1l5.5,12.7h-2.3l-1.3-3h-6l-1.3,3h-2.3L188,144.2z M191.2,151.9l-2.2-5l-2.2,5H191.2z"/>
	<path class="st0" d="M198,146.4h-4v-2.1h10.2v2.1h-4v10.6H198V146.4z"/>
	<path class="st0" d="M205.9,144.3h9.3v2h-7.1v3.3h6.3v2h-6.3v3.4h7.2v2h-9.4V144.3z"/>
	<path class="st0" d="M217.7,154.4h2.4v2.5h-2.4V154.4z"/>
</g>
</svg>
