<?xml version="1.0" encoding="utf-8"?>
<!-- Generator: Adobe Illustrator 22.1.0, SVG Export Plug-In . SVG Version: 6.00 Build 0)  -->
<svg version="1.1" id="Layer_1" xmlns="http://www.w3.org/2000/svg" xmlns:xlink="http://www.w3.org/1999/xlink" x="0px" y="0px"
	 viewBox="0 0 336 280" style="enable-background:new 0 0 336 280;" xml:space="preserve">
<style type="text/css">
	.st0{fill:#FFFFFF;}
	.st1{fill:#FFF100;}
	.st2{fill:#FFF200;}
</style>
<g>
	<path class="st0" d="M90.7,194.7h1l4.5,9.9H95l-1.1-2.6h-5.3l-1.2,2.6h-1.1L90.7,194.7z M93.4,201l-2.2-5l-2.2,5H93.4z"/>
	<path class="st0" d="M97.4,197.3h1.1v1.5c0.6-0.9,1.4-1.6,2.8-1.6c1.7,0,3.5,1.4,3.5,3.8v0c0,2.4-1.7,3.8-3.5,3.8
		c-1.3,0-2.2-0.7-2.8-1.5v3.6h-1.1V197.3z M103.6,201L103.6,201c0-1.7-1.2-2.8-2.5-2.8c-1.3,0-2.6,1.1-2.6,2.8v0
		c0,1.7,1.3,2.8,2.6,2.8C102.4,203.8,103.6,202.7,103.6,201z"/>
	<path class="st0" d="M106.1,197.3h1.1v1.5c0.6-0.9,1.4-1.6,2.8-1.6c1.7,0,3.5,1.4,3.5,3.8v0c0,2.4-1.7,3.8-3.5,3.8
		c-1.3,0-2.2-0.7-2.8-1.5v3.6h-1.1V197.3z M112.3,201L112.3,201c0-1.7-1.2-2.8-2.5-2.8c-1.3,0-2.6,1.1-2.6,2.8v0
		c0,1.7,1.3,2.8,2.6,2.8C111.1,203.8,112.3,202.7,112.3,201z"/>
	<path class="st0" d="M114.9,194.4h1.1v10.2h-1.1V194.4z"/>
	<path class="st0" d="M123.4,197.3h1.1l-3,7.5c-0.6,1.5-1.3,2-2.4,2c-0.6,0-1-0.1-1.5-0.4l0.4-0.9c0.3,0.2,0.7,0.3,1.1,0.3
		c0.6,0,1-0.3,1.5-1.4l-3.3-7.2h1.2l2.6,6L123.4,197.3z"/>
	<path class="st0" d="M129.3,197.3h1.1v1.3c0.5-0.8,1.2-1.4,2.5-1.4c1.7,0,2.8,1.2,2.8,2.9v4.5h-1.1v-4.2c0-1.3-0.7-2.2-2-2.2
		c-1.2,0-2.2,0.9-2.2,2.3v4.1h-1.1V197.3z"/>
	<path class="st0" d="M136.9,201L136.9,201c0-2.1,1.6-3.8,3.8-3.8c2.2,0,3.8,1.7,3.8,3.8v0c0,2-1.6,3.8-3.8,3.8
		C138.5,204.7,136.9,203,136.9,201z M143.4,201L143.4,201c0-1.6-1.2-2.9-2.7-2.9c-1.6,0-2.6,1.3-2.6,2.8v0c0,1.6,1.1,2.8,2.7,2.8
		C142.3,203.8,143.4,202.5,143.4,201z"/>
	<path class="st0" d="M144.9,197.3h1.1l1.9,5.8l1.9-5.8h0.9l2,5.8l1.9-5.8h1.1l-2.5,7.3h-0.9l-1.9-5.7l-2,5.7h-1L144.9,197.3z"/>
	<path class="st0" d="M160.1,202.5L160.1,202.5c0-1.6,1.3-2.4,3.1-2.4c0.9,0,1.6,0.1,2.2,0.3v-0.3c0-1.3-0.8-2-2.2-2
		c-0.9,0-1.5,0.2-2.2,0.5l-0.3-0.9c0.8-0.4,1.6-0.6,2.6-0.6c1,0,1.8,0.3,2.3,0.8c0.5,0.5,0.7,1.2,0.7,2.1v4.4h-1v-1.1
		c-0.5,0.7-1.3,1.2-2.6,1.2C161.4,204.7,160.1,204,160.1,202.5z M165.4,201.9v-0.7c-0.5-0.2-1.2-0.3-2.1-0.3c-1.4,0-2.1,0.6-2.1,1.5
		v0c0,0.9,0.8,1.4,1.8,1.4C164.3,203.9,165.4,203.1,165.4,201.9z"/>
	<path class="st0" d="M168.5,202.7v-4.4h-1v-1h1v-2.2h1.1v2.2h2.3v1h-2.3v4.2c0,0.9,0.5,1.2,1.2,1.2c0.4,0,0.7-0.1,1-0.3v0.9
		c-0.4,0.2-0.8,0.3-1.3,0.3C169.4,204.7,168.5,204.1,168.5,202.7z"/>
	<path class="st1" d="M176.1,203.6l0.8-1.1c0.8,0.6,1.7,0.9,2.4,0.9c0.7,0,1.1-0.3,1.1-0.8v0c0-0.6-0.8-0.8-1.7-1
		c-1.1-0.3-2.3-0.8-2.3-2.2v0c0-1.4,1.2-2.3,2.6-2.3c0.9,0,1.9,0.3,2.7,0.8l-0.7,1.2c-0.7-0.4-1.5-0.7-2.1-0.7c-0.7,0-1,0.3-1,0.7v0
		c0,0.5,0.8,0.8,1.7,1.1c1.1,0.3,2.3,0.8,2.3,2.2v0c0,1.6-1.2,2.3-2.7,2.3C178.2,204.7,177,204.4,176.1,203.6z"/>
	<path class="st1" d="M183.1,201.9v-4.7h1.7v4.2c0,1.1,0.6,1.8,1.6,1.8c1,0,1.7-0.7,1.7-1.8v-4.2h1.7v7.4H188v-1.1
		c-0.5,0.7-1.2,1.3-2.3,1.3C184,204.7,183.1,203.6,183.1,201.9z"/>
	<path class="st1" d="M191.6,202.5v-3.9h-0.9v-1.5h0.9v-2h1.7v2h2v1.5h-2v3.6c0,0.7,0.3,0.9,0.9,0.9c0.4,0,0.7-0.1,1.1-0.3v1.4
		c-0.4,0.2-0.9,0.4-1.5,0.4C192.5,204.7,191.6,204.2,191.6,202.5z"/>
	<path class="st1" d="M195.9,200.9L195.9,200.9c0-2.5,1.7-3.9,3.4-3.9c1.2,0,2,0.6,2.5,1.3v-4h1.7v10.2h-1.7v-1.2
		c-0.5,0.8-1.3,1.4-2.5,1.4C197.6,204.7,195.9,203.3,195.9,200.9z M201.9,200.9L201.9,200.9c0-1.5-1-2.4-2.1-2.4
		c-1.2,0-2.1,0.9-2.1,2.4v0c0,1.4,1,2.4,2.1,2.4C200.9,203.3,201.9,202.3,201.9,200.9z"/>
	<path class="st1" d="M205,202.6h1.9v1.9H205V202.6z"/>
	<path class="st1" d="M207.6,200.9L207.6,200.9c0-2.1,1.5-3.9,3.6-3.9c2.3,0,3.5,1.8,3.5,4c0,0.2,0,0.3,0,0.5h-5.4
		c0.2,1.2,1,1.9,2.1,1.9c0.8,0,1.4-0.3,2-0.9l1,0.9c-0.7,0.8-1.7,1.4-3,1.4C209.3,204.7,207.6,203.2,207.6,200.9z M213.1,200.4
		c-0.1-1.1-0.8-1.9-1.9-1.9c-1,0-1.8,0.8-1.9,1.9H213.1z"/>
	<path class="st1" d="M215.5,200.9L215.5,200.9c0-2.5,1.7-3.9,3.4-3.9c1.2,0,2,0.6,2.5,1.3v-4h1.7v10.2h-1.7v-1.2
		c-0.5,0.8-1.3,1.4-2.5,1.4C217.2,204.7,215.5,203.3,215.5,200.9z M221.5,200.9L221.5,200.9c0-1.5-1-2.4-2.1-2.4
		c-1.2,0-2.1,0.9-2.1,2.4v0c0,1.4,1,2.4,2.1,2.4C220.5,203.3,221.5,202.3,221.5,200.9z"/>
	<path class="st1" d="M224.7,201.9v-4.7h1.7v4.2c0,1.1,0.6,1.8,1.6,1.8c1,0,1.7-0.7,1.7-1.8v-4.2h1.7v7.4h-1.7v-1.1
		c-0.5,0.7-1.2,1.3-2.3,1.3C225.6,204.7,224.7,203.6,224.7,201.9z"/>
	<path class="st1" d="M232.8,202.6h1.9v1.9h-1.9V202.6z"/>
	<path class="st1" d="M235.5,203.6l0.8-1.1c0.8,0.6,1.7,0.9,2.4,0.9c0.7,0,1.1-0.3,1.1-0.8v0c0-0.6-0.8-0.8-1.7-1
		c-1.1-0.3-2.3-0.8-2.3-2.2v0c0-1.4,1.2-2.3,2.6-2.3c0.9,0,1.9,0.3,2.7,0.8l-0.7,1.2c-0.7-0.4-1.5-0.7-2.1-0.7c-0.7,0-1,0.3-1,0.7v0
		c0,0.5,0.8,0.8,1.7,1.1c1.1,0.3,2.3,0.8,2.3,2.2v0c0,1.6-1.2,2.3-2.7,2.3C237.6,204.7,236.4,204.4,235.5,203.6z"/>
	<path class="st1" d="M242.5,206l0.6-1.3c0.8,0.5,1.6,0.8,2.6,0.8c1.5,0,2.3-0.8,2.3-2.3v-0.6c-0.6,0.8-1.4,1.3-2.6,1.3
		c-1.7,0-3.4-1.3-3.4-3.5v0c0-2.2,1.6-3.5,3.4-3.5c1.2,0,2,0.6,2.6,1.3v-1.1h1.7v5.9c0,1.2-0.3,2.2-0.9,2.8c-0.7,0.7-1.7,1-3,1
		C244.6,206.8,243.5,206.5,242.5,206z M248.1,200.5L248.1,200.5c0-1.2-1-2-2.2-2c-1.2,0-2.1,0.8-2.1,2v0c0,1.2,0.9,2,2.1,2
		C247.1,202.5,248.1,201.7,248.1,200.5z"/>
</g>
<g>
	<path class="st2" d="M82.7,221.4L82.7,221.4c0-2.8,2.1-5.1,5.1-5.1c3,0,5.1,2.3,5.1,5v0c0,2.8-2.1,5.1-5.1,5.1
		S82.7,224.1,82.7,221.4z M91.2,221.4L91.2,221.4c0-1.9-1.4-3.5-3.3-3.5s-3.3,1.5-3.3,3.4v0c0,1.9,1.4,3.5,3.3,3.5
		C89.8,224.8,91.2,223.3,91.2,221.4z"/>
	<path class="st2" d="M94.3,218.9H96v1.2c0.5-0.8,1.3-1.4,2.5-1.4c1.7,0,3.4,1.4,3.4,3.8v0c0,2.5-1.7,3.8-3.4,3.8
		c-1.2,0-2-0.6-2.5-1.3v3.4h-1.7V218.9z M100.3,222.6L100.3,222.6c0-1.5-1-2.4-2.1-2.4c-1.1,0-2.2,1-2.2,2.4v0c0,1.4,1,2.4,2.2,2.4
		C99.3,224.9,100.3,224,100.3,222.6z"/>
	<path class="st2" d="M102.8,222.6L102.8,222.6c0-2.1,1.5-3.9,3.6-3.9c2.4,0,3.5,1.8,3.5,4c0,0.2,0,0.3,0,0.5h-5.4
		c0.2,1.2,1,1.9,2.1,1.9c0.8,0,1.4-0.3,2-0.9l1,0.9c-0.7,0.8-1.7,1.4-3,1.4C104.4,226.4,102.8,224.9,102.8,222.6z M108.2,222
		c-0.1-1.1-0.8-1.9-1.9-1.9c-1,0-1.8,0.8-1.9,1.9H108.2z"/>
	<path class="st2" d="M111,218.9h1.7v1.1c0.5-0.7,1.2-1.3,2.3-1.3c1.7,0,2.6,1.1,2.6,2.8v4.7H116v-4.2c0-1.1-0.6-1.8-1.6-1.8
		c-1,0-1.7,0.7-1.7,1.8v4.2H111V218.9z"/>
	<path class="st2" d="M123,216.5h1.7v4.1h4.7v-4.1h1.7v9.8h-1.7v-4.1h-4.7v4.1H123V216.5z"/>
	<path class="st2" d="M132.5,222.6L132.5,222.6c0-2.1,1.7-3.9,4-3.9s3.9,1.7,3.9,3.8v0c0,2.1-1.7,3.9-4,3.9
		C134.2,226.4,132.5,224.7,132.5,222.6z M138.7,222.6L138.7,222.6c0-1.3-0.9-2.4-2.3-2.4c-1.4,0-2.2,1.1-2.2,2.4v0
		c0,1.3,0.9,2.4,2.3,2.4C137.8,224.9,138.7,223.9,138.7,222.6z"/>
	<path class="st2" d="M141.4,223.6v-4.7h1.7v4.2c0,1.1,0.6,1.8,1.6,1.8c1,0,1.7-0.7,1.7-1.8v-4.2h1.7v7.4h-1.7v-1.1
		c-0.5,0.7-1.2,1.3-2.3,1.3C142.4,226.4,141.4,225.3,141.4,223.6z"/>
	<path class="st2" d="M149,225.3l0.8-1.1c0.8,0.6,1.7,0.9,2.4,0.9c0.7,0,1.1-0.3,1.1-0.8v0c0-0.6-0.8-0.8-1.7-1
		c-1.1-0.3-2.3-0.8-2.3-2.2v0c0-1.4,1.2-2.3,2.6-2.3c0.9,0,1.9,0.3,2.7,0.8l-0.7,1.2c-0.7-0.4-1.5-0.7-2.1-0.7c-0.7,0-1,0.3-1,0.7v0
		c0,0.5,0.8,0.8,1.7,1.1c1.1,0.3,2.3,0.8,2.3,2.2v0c0,1.6-1.2,2.3-2.7,2.3C151.1,226.4,150,226,149,225.3z"/>
	<path class="st2" d="M155.7,222.6L155.7,222.6c0-2.1,1.5-3.9,3.6-3.9c2.4,0,3.5,1.8,3.5,4c0,0.2,0,0.3,0,0.5h-5.4
		c0.2,1.2,1,1.9,2.1,1.9c0.8,0,1.4-0.3,2-0.9l1,0.9c-0.7,0.8-1.7,1.4-3,1.4C157.4,226.4,155.7,224.9,155.7,222.6z M161.2,222
		c-0.1-1.1-0.8-1.9-1.9-1.9c-1,0-1.8,0.8-1.9,1.9H161.2z"/>
	<path class="st0" d="M168.1,221.3L168.1,221.3c0-1,0.9-1.8,1.8-1.8c1,0,1.8,0.8,1.8,1.8v0c0,1-0.8,1.8-1.8,1.8
		S168.1,222.4,168.1,221.3z"/>
	<path class="st0" d="M177,225.4l3.6-3.1c1.5-1.3,2-2.1,2-3.1c0-1.1-0.9-1.9-2-1.9c-1.1,0-1.8,0.6-2.6,1.7l-0.8-0.6
		c0.9-1.3,1.8-2.1,3.5-2.1c1.8,0,3,1.2,3,2.8v0c0,1.4-0.8,2.3-2.5,3.8l-2.6,2.3h5.2v1H177V225.4z"/>
	<path class="st0" d="M184.9,224.7l0.8-0.7c0.8,0.9,1.7,1.5,2.9,1.5c1.2,0,2.1-0.8,2.1-1.9v0c0-1.2-1.1-1.9-2.7-1.9h-0.6l-0.2-0.7
		l3.1-3.5h-4.8v-1h6.3v0.8l-3.1,3.4c1.7,0.1,3.2,1,3.2,2.8v0c0,1.8-1.5,3-3.3,3C186.9,226.4,185.7,225.7,184.9,224.7z"/>
	<path class="st0" d="M202.8,224.9c-0.9,1-1.9,1.5-3.2,1.5c-1.8,0-3.1-1.1-3.1-2.7v0c0-1.3,0.9-2.2,2.4-2.8c-0.7-0.8-1-1.4-1-2.2v0
		c0-1.3,1-2.3,2.6-2.3c1.4,0,2.4,1,2.4,2.2v0c0,1.2-0.9,2-2.3,2.5l2.2,2.3c0.4-0.6,0.8-1.4,1.2-2.2l0.9,0.4
		c-0.4,0.9-0.9,1.8-1.4,2.5l1.7,1.8l-0.8,0.6L202.8,224.9z M202.1,224.2l-2.6-2.7c-1.3,0.5-1.9,1.3-1.9,2.1v0c0,1.1,0.8,1.8,2,1.8
		C200.6,225.5,201.4,225,202.1,224.2z M201.8,218.6L201.8,218.6c0-0.8-0.6-1.4-1.4-1.4c-0.9,0-1.5,0.6-1.5,1.4v0c0,0.6,0.2,1,1,1.8
		C201.1,220,201.8,219.4,201.8,218.6z"/>
	<path class="st0" d="M209.3,225.4l3.6-3.1c1.5-1.3,2-2.1,2-3.1c0-1.1-0.9-1.9-2-1.9c-1.1,0-1.8,0.6-2.6,1.7l-0.8-0.6
		c0.9-1.3,1.8-2.1,3.5-2.1c1.8,0,3,1.2,3,2.8v0c0,1.4-0.8,2.3-2.5,3.8l-2.6,2.3h5.2v1h-6.8V225.4z"/>
	<path class="st0" d="M222.2,223.9H217l-0.3-0.8l5.5-6.8h1v6.6h1.5v0.9h-1.5v2.3h-1.1V223.9z M222.2,223V218l-4.1,5.1H222.2z"/>
	<path class="st0" d="M230,216.5h7v1h-5.9v3.5h5.3v1h-5.3v4.3H230V216.5z"/>
	<path class="st0" d="M237.8,222.7L237.8,222.7c0-2.1,1.5-3.8,3.5-3.8c2.1,0,3.4,1.7,3.4,3.8c0,0.1,0,0.2,0,0.4h-5.7
		c0.2,1.6,1.3,2.5,2.5,2.5c1,0,1.7-0.4,2.3-1l0.7,0.6c-0.7,0.8-1.6,1.4-3,1.4C239.4,226.4,237.8,224.9,237.8,222.7z M243.5,222.2
		c-0.1-1.3-0.9-2.5-2.3-2.5c-1.3,0-2.2,1.1-2.4,2.5H243.5z"/>
	<path class="st0" d="M247,224.9v1.4h-1.1V216h1.1v4.4c0.6-0.9,1.4-1.6,2.8-1.6c1.7,0,3.5,1.4,3.5,3.8v0c0,2.4-1.7,3.8-3.5,3.8
		C248.4,226.4,247.6,225.7,247,224.9z M252.1,222.7L252.1,222.7c0-1.7-1.2-2.8-2.5-2.8c-1.3,0-2.6,1.1-2.6,2.8v0
		c0,1.7,1.3,2.8,2.6,2.8C251,225.4,252.1,224.4,252.1,222.7z"/>
</g>
</svg>
