<?xml version="1.0" encoding="utf-8"?>
<!-- Generator: Adobe Illustrator 22.1.0, SVG Export Plug-In . SVG Version: 6.00 Build 0)  -->
<svg version="1.1" id="Layer_1" xmlns="http://www.w3.org/2000/svg" xmlns:xlink="http://www.w3.org/1999/xlink" x="0px" y="0px"
	 viewBox="0 0 336 280" style="enable-background:new 0 0 336 280;" xml:space="preserve">
<style type="text/css">
	.st0{fill:#FFFFFF;}
</style>
<g>
	<g>
		<path class="st0" d="M79.5,110.1c1.9,0.4,2.7,1.1,2.7,2.4c0,1.5-1.2,2.4-2.9,2.4c-1.3,0-2.4-0.4-3.4-1.4l0.6-0.7
			c0.9,0.8,1.7,1.2,2.9,1.2c1.1,0,1.9-0.6,1.9-1.4c0-0.8-0.4-1.2-2.2-1.6c-1.9-0.4-2.8-1-2.8-2.4c0-1.3,1.2-2.3,2.8-2.3
			c1.2,0,2.1,0.3,3,1l-0.5,0.7c-0.8-0.6-1.6-0.9-2.4-0.9c-1.1,0-1.8,0.6-1.8,1.4C77.2,109.2,77.7,109.7,79.5,110.1"/>
		<rect x="84.8" y="106.3" class="st0" width="0.9" height="8.4"/>
		<polygon class="st0" points="95,106.3 95.9,106.3 95.9,114.7 95.1,114.7 89.7,107.8 89.7,114.7 88.8,114.7 88.8,106.3 89.7,106.3 
			95,113.1 		"/>
		<path class="st0" d="M102.6,114.9c-2.7,0-4.3-1.9-4.3-4.3c0-2.3,1.7-4.4,4.2-4.4c1.4,0,2.3,0.4,3.1,1.1l-0.6,0.7
			c-0.7-0.6-1.4-1-2.6-1c-1.9,0-3.2,1.6-3.2,3.5c0,2,1.3,3.5,3.3,3.5c1,0,1.9-0.4,2.4-0.8v-2.1h-2.6v-0.9h3.5v3.4
			C105.2,114.3,104,114.9,102.6,114.9"/>
		<path class="st0" d="M116.3,114.7h-1l-1-2.2h-4.6l-1,2.2h-1l3.8-8.5h0.9L116.3,114.7z M112,107.4l-1.9,4.3h3.8L112,107.4z"/>
		<path class="st0" d="M121.3,111.8h-2v3h-1v-8.4h3.2c1.9,0,3.2,1,3.2,2.7C124.6,110.8,123.1,111.8,121.3,111.8 M121.4,107.2h-2.1
			v3.7h2.1c1.4,0,2.3-0.7,2.3-1.9C123.7,107.8,122.8,107.2,121.4,107.2"/>
		<path class="st0" d="M130.8,114.9c-2.6,0-4.3-2-4.3-4.3c0-2.3,1.7-4.4,4.3-4.4c2.6,0,4.3,2,4.3,4.3
			C135.1,112.8,133.3,114.9,130.8,114.9 M130.8,107.1c-1.9,0-3.3,1.5-3.3,3.5c0,1.9,1.4,3.5,3.3,3.5c1.9,0,3.3-1.5,3.3-3.5
			C134.1,108.6,132.7,107.1,130.8,107.1"/>
		<path class="st0" d="M143.2,114.7l-2.4-3.3h-2.4v3.3h-1v-8.4h3.6c1.9,0,3,1,3,2.5c0,1.4-1,2.2-2.3,2.5l2.6,3.4H143.2z M141,107.2
			h-2.6v3.4h2.6c1.3,0,2.2-0.7,2.2-1.7C143.1,107.8,142.3,107.2,141,107.2"/>
		<polygon class="st0" points="152.7,107.2 147.6,107.2 147.6,110.1 152.2,110.1 152.2,110.9 147.6,110.9 147.6,113.9 152.8,113.9 
			152.8,114.7 146.7,114.7 146.7,106.3 152.7,106.3 		"/>
		<path class="st0" d="M167.4,111.1c0,2.5-1.4,3.7-3.5,3.7c-2.1,0-3.5-1.3-3.5-3.7v-4.9h1v4.8c0,1.8,1,2.8,2.6,2.8
			c1.6,0,2.5-0.9,2.5-2.8v-4.9h1V111.1z"/>
		<polygon class="st0" points="176.4,106.3 177.3,106.3 177.3,114.7 176.5,114.7 171.1,107.8 171.1,114.7 170.2,114.7 170.2,106.3 
			171.1,106.3 176.4,113.1 		"/>
		<rect x="180.3" y="106.3" class="st0" width="0.9" height="8.4"/>
		<polygon class="st0" points="190.4,106.3 191.4,106.3 187.8,114.8 187,114.8 183.3,106.3 184.4,106.3 187.4,113.6 		"/>
		<polygon class="st0" points="199.5,107.2 194.4,107.2 194.4,110.1 199,110.1 199,110.9 194.4,110.9 194.4,113.9 199.6,113.9 
			199.6,114.7 193.4,114.7 193.4,106.3 199.5,106.3 		"/>
		<path class="st0" d="M207.8,114.7l-2.4-3.3H203v3.3h-1v-8.4h3.6c1.8,0,3,1,3,2.5c0,1.4-1,2.2-2.3,2.5l2.6,3.4H207.8z M205.6,107.2
			H203v3.4h2.6c1.3,0,2.2-0.7,2.2-1.7C207.7,107.8,206.9,107.2,205.6,107.2"/>
		<path class="st0" d="M214.3,110.1c1.9,0.4,2.7,1.1,2.7,2.4c0,1.5-1.2,2.4-2.9,2.4c-1.3,0-2.4-0.4-3.4-1.4l0.6-0.7
			c0.9,0.8,1.7,1.2,2.9,1.2c1.1,0,1.9-0.6,1.9-1.4c0-0.8-0.4-1.2-2.2-1.6c-1.9-0.4-2.8-1-2.8-2.4c0-1.3,1.2-2.3,2.8-2.3
			c1.2,0,2.1,0.3,3,1l-0.5,0.7c-0.8-0.6-1.6-0.9-2.4-0.9c-1.1,0-1.8,0.6-1.8,1.4C212,109.2,212.4,109.7,214.3,110.1"/>
		<rect x="219.6" y="106.3" class="st0" width="1" height="8.4"/>
		<polygon class="st0" points="226.5,114.7 225.6,114.7 225.6,107.2 222.8,107.2 222.8,106.3 229.4,106.3 229.4,107.2 226.5,107.2 
					"/>
		<polygon class="st0" points="235,114.7 234,114.7 234,111.4 230.5,106.3 231.7,106.3 234.5,110.5 237.4,106.3 238.5,106.3 
			235,111.4 		"/>
		<path class="st0" d="M247.3,114.9c-2.6,0-4.3-2-4.3-4.3c0-2.3,1.7-4.4,4.3-4.4c2.6,0,4.3,2,4.3,4.3
			C251.6,112.8,249.9,114.9,247.3,114.9 M247.3,107.1c-1.9,0-3.3,1.5-3.3,3.5c0,1.9,1.4,3.5,3.3,3.5c1.9,0,3.3-1.5,3.3-3.5
			C250.7,108.6,249.3,107.1,247.3,107.1"/>
		<polygon class="st0" points="260.1,107.2 255,107.2 255,110.2 259.5,110.2 259.5,111.1 255,111.1 255,114.7 254,114.7 254,106.3 
			260.1,106.3 		"/>
		<polygon class="st0" points="79.7,127.4 78.8,127.4 78.8,119.8 75.9,119.8 75.9,119 82.5,119 82.5,119.8 79.7,119.8 		"/>
		<polygon class="st0" points="91,119.8 85.9,119.8 85.9,122.7 90.5,122.7 90.5,123.6 85.9,123.6 85.9,126.5 91.1,126.5 91.1,127.4 
			84.9,127.4 84.9,119 91,119 		"/>
		<path class="st0" d="M97.6,127.5c-2.4,0-4.2-1.9-4.2-4.3c0-2.4,1.8-4.4,4.3-4.4c1.5,0,2.4,0.5,3.3,1.3l-0.6,0.7
			c-0.7-0.7-1.5-1.2-2.6-1.2c-1.9,0-3.3,1.5-3.3,3.5c0,2,1.4,3.5,3.3,3.5c1.2,0,1.9-0.4,2.7-1.2l0.6,0.6
			C100.1,126.9,99.1,127.5,97.6,127.5"/>
		<polygon class="st0" points="104.5,123.6 104.5,127.4 103.5,127.4 103.5,119 104.5,119 104.5,122.7 109.4,122.7 109.4,119 
			110.3,119 110.3,127.4 109.4,127.4 109.4,123.6 		"/>
		<polygon class="st0" points="119.9,119 120.8,119 120.8,127.4 120.1,127.4 114.6,120.5 114.6,127.4 113.7,127.4 113.7,119 
			114.6,119 119.9,125.7 		"/>
		<path class="st0" d="M127.8,127.5c-2.6,0-4.3-2-4.3-4.3c0-2.3,1.7-4.4,4.3-4.4c2.6,0,4.3,2,4.3,4.3
			C132.1,125.5,130.3,127.5,127.8,127.5 M127.8,119.7c-1.9,0-3.3,1.5-3.3,3.5c0,1.9,1.4,3.5,3.3,3.5c1.9,0,3.3-1.5,3.3-3.5
			C131.1,121.2,129.7,119.7,127.8,119.7"/>
		<polygon class="st0" points="134.8,119 135.7,119 135.7,126.5 140.4,126.5 140.4,127.4 134.8,127.4 		"/>
		<path class="st0" d="M145.9,127.5c-2.6,0-4.3-2-4.3-4.3c0-2.3,1.7-4.4,4.3-4.4c2.6,0,4.3,2,4.3,4.3
			C150.2,125.5,148.5,127.5,145.9,127.5 M145.9,119.7c-1.9,0-3.3,1.5-3.3,3.5c0,1.9,1.4,3.5,3.3,3.5c1.9,0,3.3-1.5,3.3-3.5
			C149.2,121.2,147.9,119.7,145.9,119.7"/>
		<path class="st0" d="M156.7,127.5c-2.6,0-4.3-1.9-4.3-4.3c0-2.3,1.7-4.4,4.2-4.4c1.4,0,2.3,0.4,3.1,1.1l-0.6,0.7
			c-0.6-0.6-1.4-1-2.6-1c-1.9,0-3.2,1.6-3.2,3.5c0,2,1.3,3.5,3.3,3.5c1,0,1.9-0.4,2.4-0.8v-2.1h-2.6v-0.9h3.5v3.4
			C159.3,126.9,158.2,127.5,156.7,127.5"/>
		<polygon class="st0" points="166.1,127.4 165.1,127.4 165.1,124 161.6,119 162.8,119 165.6,123.2 168.5,119 169.6,119 166.1,124 
					"/>
		<path class="st0" d="M183.4,127.4h-1l-1-2.2h-4.6l-1,2.2h-1l3.8-8.5h0.9L183.4,127.4z M179.1,120l-1.9,4.3h3.8L179.1,120z"/>
		<polygon class="st0" points="191.9,119 192.8,119 192.8,127.4 192,127.4 186.6,120.5 186.6,127.4 185.7,127.4 185.7,119 
			186.6,119 191.9,125.7 		"/>
		<path class="st0" d="M199.1,127.4h-2.9V119h2.9c2.6,0,4.5,1.8,4.5,4.2C203.6,125.5,201.8,127.4,199.1,127.4 M199.1,119.8h-2v6.7h2
			c2.1,0,3.5-1.4,3.5-3.3C202.6,121.3,201.2,119.8,199.1,119.8"/>
		<path class="st0" d="M213.6,127.4h-2.9V119h2.9c2.7,0,4.5,1.8,4.5,4.2C218.1,125.5,216.3,127.4,213.6,127.4 M213.6,119.8h-2v6.7h2
			c2.1,0,3.5-1.4,3.5-3.3C217.1,121.3,215.8,119.8,213.6,119.8"/>
		<polygon class="st0" points="227,119.8 221.8,119.8 221.8,122.7 226.4,122.7 226.4,123.6 221.8,123.6 221.8,126.5 227,126.5 
			227,127.4 220.9,127.4 220.9,119 227,119 		"/>
		<path class="st0" d="M232.7,122.7c1.9,0.4,2.8,1.1,2.8,2.4c0,1.5-1.2,2.4-2.9,2.4c-1.3,0-2.4-0.4-3.4-1.4l0.6-0.7
			c0.9,0.8,1.7,1.2,2.9,1.2c1.1,0,1.9-0.6,1.9-1.4c0-0.8-0.4-1.2-2.2-1.6c-1.9-0.4-2.8-1-2.8-2.4c0-1.3,1.1-2.3,2.8-2.3
			c1.2,0,2.1,0.3,3,1l-0.6,0.7c-0.8-0.6-1.6-0.9-2.4-0.9c-1.1,0-1.8,0.6-1.8,1.4C230.5,121.9,230.9,122.3,232.7,122.7"/>
		<rect x="238.5" y="119" class="st0" width="0.9" height="8.4"/>
		<path class="st0" d="M246.4,127.5c-2.6,0-4.3-1.9-4.3-4.3c0-2.3,1.7-4.4,4.2-4.4c1.4,0,2.3,0.4,3.1,1.1l-0.6,0.7
			c-0.6-0.6-1.4-1-2.6-1c-1.9,0-3.2,1.6-3.2,3.5c0,2,1.3,3.5,3.3,3.5c1,0,1.9-0.4,2.4-0.8v-2.1h-2.6v-0.9h3.5v3.4
			C249,126.9,247.8,127.5,246.4,127.5"/>
		<polygon class="st0" points="259.1,119 260.1,119 260.1,127.4 259.3,127.4 253.9,120.5 253.9,127.4 252.9,127.4 252.9,119 
			253.8,119 259.1,125.7 		"/>
		<rect x="75.9" y="84.2" class="st0" width="32.6" height="4.2"/>
		<rect x="85.4" y="65.3" class="st0" width="32.6" height="4.2"/>
		<polygon class="st0" points="118,97.9 75.9,97.9 75.9,93.7 113.8,93.7 113.8,79 75.9,79 75.9,55.8 118,55.8 118,60 80.1,60 
			80.1,74.8 118,74.8 		"/>
		<rect x="142.2" y="55.8" class="st0" width="4.2" height="23.1"/>
		<polygon class="st0" points="165.4,97.9 123.3,97.9 123.3,55.8 127.5,55.8 127.5,93.7 161.2,93.7 161.2,55.8 165.4,55.8 		"/>
		<polygon class="st0" points="155.9,88.4 132.8,88.4 132.8,55.8 137,55.8 137,84.2 151.7,84.2 151.7,55.8 155.9,55.8 		"/>
		<rect x="218" y="74.8" class="st0" width="23.1" height="4.2"/>
		<polygon class="st0" points="260.1,97.9 218,97.9 218,93.7 255.9,93.7 255.9,60 218,60 218,55.8 260.1,55.8 		"/>
		<polygon class="st0" points="250.6,88.4 218,88.4 218,84.2 246.4,84.2 246.4,69.5 218,69.5 218,65.3 250.6,65.3 		"/>
		<polygon class="st0" points="170.6,55.8 170.6,60 189.6,60 189.6,97.9 193.8,97.9 193.8,60 212.7,60 212.7,55.8 		"/>
		<polygon class="st0" points="199,97.9 203.2,97.9 203.2,69.5 212.7,69.5 212.7,65.3 199,65.3 		"/>
		<rect x="208.5" y="74.8" class="st0" width="4.2" height="23.1"/>
		<rect x="170.6" y="74.8" class="st0" width="4.2" height="23.1"/>
		<polygon class="st0" points="170.6,69.5 180.1,69.5 180.1,97.9 184.3,97.9 184.3,65.3 170.6,65.3 		"/>
	</g>
	<g>
		<path class="st0" d="M54.8,150.7h1.8l4.9,11.3h-2.1l-1.1-2.7H53l-1.2,2.7h-2L54.8,150.7z M57.6,157.6l-1.9-4.5l-1.9,4.5H57.6z"/>
		<path class="st0" d="M67,150.8h5c1.3,0,2.3,0.4,2.9,1c0.5,0.5,0.8,1.1,0.8,1.9v0c0,1.3-0.8,2.1-1.6,2.5c1.3,0.4,2.2,1.2,2.2,2.7v0
			c0,2-1.6,3.1-4.1,3.1H67V150.8z M73.7,154c0-0.9-0.7-1.4-2-1.4h-2.8v3h2.7C72.9,155.6,73.7,155.1,73.7,154L73.7,154z M72,157.2
			h-3.1v3.1h3.3c1.3,0,2.2-0.5,2.2-1.5v0C74.3,157.8,73.6,157.2,72,157.2z"/>
		<path class="st0" d="M77.9,150.8h8.3v1.8h-6.3v2.9h5.6v1.8h-5.6v3h6.4v1.8h-8.4V150.8z"/>
		<path class="st0" d="M90.7,152.7h-3.6v-1.8h9.1v1.8h-3.6v9.4h-2V152.7z"/>
		<path class="st0" d="M100.4,152.7h-3.6v-1.8h9.1v1.8h-3.6v9.4h-2V152.7z"/>
		<path class="st0" d="M107.4,150.8h8.3v1.8h-6.3v2.9h5.6v1.8h-5.6v3h6.4v1.8h-8.4V150.8z"/>
		<path class="st0" d="M117.4,150.8h5c1.4,0,2.5,0.4,3.2,1.1c0.6,0.6,0.9,1.4,0.9,2.4v0c0,1.8-1.1,3-2.7,3.4l3,4.2h-2.3l-2.8-3.9
			h-2.5v3.9h-2V150.8z M122.3,156.4c1.4,0,2.3-0.7,2.3-1.9v0c0-1.2-0.9-1.9-2.3-1.9h-2.9v3.8H122.3z"/>
		<path class="st0" d="M131.7,150.8h2.1l2.7,8.3l2.8-8.4h1.7l2.8,8.4l2.7-8.3h2.1l-3.9,11.3h-1.7l-2.8-8.1l-2.8,8.1h-1.7
			L131.7,150.8z"/>
		<path class="st0" d="M148.6,156.5L148.6,156.5c0-3.2,2.4-5.8,5.9-5.8s5.8,2.6,5.8,5.8v0c0,3.2-2.4,5.8-5.9,5.8
			S148.6,159.6,148.6,156.5z M158.3,156.5L158.3,156.5c0-2.2-1.6-4-3.8-4c-2.2,0-3.8,1.8-3.8,3.9v0c0,2.2,1.6,4,3.8,4
			C156.7,160.4,158.3,158.6,158.3,156.5z"/>
		<path class="st0" d="M162.1,150.8h5c1.4,0,2.5,0.4,3.2,1.1c0.6,0.6,0.9,1.4,0.9,2.4v0c0,1.8-1.1,3-2.7,3.4l3,4.2h-2.3l-2.8-3.9
			h-2.5v3.9h-2V150.8z M167,156.4c1.4,0,2.3-0.7,2.3-1.9v0c0-1.2-0.9-1.9-2.3-1.9h-2.9v3.8H167z"/>
		<path class="st0" d="M173.1,150.8h2v9.4h5.9v1.8h-7.9V150.8z"/>
		<path class="st0" d="M182.3,150.8h4.2c3.5,0,6,2.4,6,5.6v0c0,3.2-2.4,5.6-6,5.6h-4.2V150.8z M184.3,152.6v7.6h2.2
			c2.4,0,3.9-1.6,3.9-3.8v0c0-2.2-1.5-3.8-3.9-3.8H184.3z"/>
		<path class="st0" d="M198.4,150.8h5c1.3,0,2.3,0.4,2.9,1c0.5,0.5,0.8,1.1,0.8,1.9v0c0,1.3-0.8,2.1-1.6,2.5
			c1.3,0.4,2.2,1.2,2.2,2.7v0c0,2-1.6,3.1-4.1,3.1h-5.2V150.8z M205.1,154c0-0.9-0.7-1.4-2-1.4h-2.8v3h2.7
			C204.3,155.6,205.1,155.1,205.1,154L205.1,154z M203.5,157.2h-3.1v3.1h3.3c1.3,0,2.2-0.5,2.2-1.5v0
			C205.8,157.8,205,157.2,203.5,157.2z"/>
		<path class="st0" d="M212.1,157.6l-4.5-6.8h2.3l3.1,5l3.2-5h2.3l-4.5,6.8v4.5h-2V157.6z"/>
		<path class="st0" d="M223.8,150.8h4.2c3.5,0,6,2.4,6,5.6v0c0,3.2-2.4,5.6-6,5.6h-4.2V150.8z M225.8,152.6v7.6h2.2
			c2.4,0,3.9-1.6,3.9-3.8v0c0-2.2-1.5-3.8-3.9-3.8H225.8z"/>
		<path class="st0" d="M235.7,150.8h8.3v1.8h-6.3v2.9h5.6v1.8h-5.6v3h6.4v1.8h-8.4V150.8z"/>
		<path class="st0" d="M245,160.4l1.2-1.4c1.1,0.9,2.2,1.5,3.5,1.5c1.2,0,2-0.6,2-1.4v0c0-0.8-0.4-1.2-2.5-1.7
			c-2.4-0.6-3.7-1.3-3.7-3.4v0c0-1.9,1.6-3.3,3.8-3.3c1.6,0,2.9,0.5,4.1,1.4l-1.1,1.5c-1-0.8-2-1.2-3-1.2c-1.2,0-1.8,0.6-1.8,1.3v0
			c0,0.9,0.5,1.3,2.7,1.8c2.4,0.6,3.6,1.4,3.6,3.3v0c0,2.1-1.6,3.4-4,3.4C248,162.2,246.4,161.6,245,160.4z"/>
		<path class="st0" d="M255.5,150.8h2V162h-2V150.8z"/>
		<path class="st0" d="M259.4,156.5L259.4,156.5c0-3.2,2.4-5.8,5.8-5.8c2,0,3.2,0.5,4.3,1.5l-1.2,1.5c-0.9-0.7-1.7-1.2-3.1-1.2
			c-2.1,0-3.6,1.8-3.6,3.9v0c0,2.3,1.5,4,3.8,4c1.1,0,2-0.3,2.7-0.9v-2.1h-2.9v-1.7h4.8v4.7c-1.1,0.9-2.7,1.7-4.7,1.7
			C261.7,162.2,259.4,159.7,259.4,156.5z"/>
		<path class="st0" d="M271.8,150.8h1.8l6,7.8v-7.8h1.9V162h-1.6l-6.2-8v8h-1.9V150.8z"/>
		<path class="st0" d="M283.4,159.8h2.1v2.2h-2.1V159.8z"/>
	</g>
</g>
</svg>
